<svg xmlns="http://www.w3.org/2000/svg" viewBox="0 0 48 48"><path d="M30.2 27.3h0c0-2.6-2.1-4.7-4.7-4.7s-4.7 2.1-4.7 4.7h0c0 2.6 2.1 4.7 4.7 4.7 2.6-.1 4.7-2.2 4.7-4.7m3.1 0c0 4.3-3.5 7.8-7.8 7.8-3 0-5.5-1.7-6.9-4.1-1.3 2.5-3.9 4.1-6.9 4.1a7.77 7.77 0 0 1-7.8-7.6h0 0v-13h0 0A1.73 1.73 0 0 1 5.6 13a1.54 1.54 0 0 1 1.5 1.5h0 0V21a7.84 7.84 0 0 1 4.7-1.6c3 0 5.5 1.7 6.9 4.1 1.3-2.5 3.9-4.1 6.9-4.1 4.2.1 7.7 3.6 7.7 7.9h0m-16.9 0h0c0-2.6-2.1-4.7-4.7-4.7S7 24.7 7 27.3h0c0 2.6 2.1 4.7 4.7 4.7 2.6-.1 4.7-2.2 4.7-4.7m27.3 5.3h0c.2.3.3.6.3.9 0 .5-.2.9-.6 1.2-.3.2-.6.3-.9.3-.5 0-.9-.2-1.2-.6l-3.5-4.6-3.4 4.6h0c-.3.4-.7.6-1.2.6a1.93 1.93 0 0 1-1-.3c-.4-.3-.6-.8-.6-1.3 0-.3.1-.6.3-.9h0 0 0l3.9-5.3-3.9-5.3h0 0 0c-.2-.3-.3-.6-.3-.9 0-.5.2-.9.6-1.2.7-.5 1.7-.4 2.2.3h0l3.4 4.6 3.5-4.6c.5-.7 1.4-.8 2.1-.3.4.3.6.8.6 1.3 0 .3-.1.6-.3.9h0 0 0l-4 5.3 4 5.3h0z"/></svg>