<svg xmlns="http://www.w3.org/2000/svg" viewBox="0 0 48 48"><path d="M19.3 15.3c.5-1 .7-2.1.7-3.3 0-4.4-3.6-8-8-8s-8 3.6-8 8 3.6 8 8 8c1.2 0 2.3-.3 3.3-.7L20 24l-4.7 4.7c-1-.5-2.1-.7-3.3-.7-4.4 0-8 3.6-8 8s3.6 8 8 8 8-3.6 8-8c0-1.2-.3-2.3-.7-3.3L24 28l14 14h6v-2L19.3 15.3zM12 16c-2.2 0-4-1.8-4-4s1.8-4 4-4 4 1.8 4 4-1.8 4-4 4zm0 24c-2.2 0-4-1.8-4-4s1.8-4 4-4 4 1.8 4 4-1.8 4-4 4zm12-15a1.08 1.08 0 0 1-1-1 1.08 1.08 0 0 1 1-1 1.08 1.08 0 0 1 1 1 1.08 1.08 0 0 1-1 1zM38 6L26 18l4 4L44 8V6h-6z"/></svg>