<svg xmlns="http://www.w3.org/2000/svg" viewBox="0 0 48 48"><path d="M40.8 16.3l-5.5-5.5c-.1-.1-.3-.2-.5-.2h-2.5v-.3c0-.2-.1-.3-.2-.5l-5.5-5.5a.55.55 0 0 0-.5-.3H9c-1.1 0-2 .9-2 2v29.6c0 1.1.9 2 2 2h6.7V42c0 1.1.9 2 2 2H39c1.1 0 2-.9 2-2V16.7a.76.76 0 0 0-.2-.4zm-31.6 19V6.2H25v4.4c0 .4.4.8.8.8h4.3v23.9H9.2zm29.7 6.5h-21v-4.4h12.5c1.1 0 2-.9 2-2V12.7h1.4v4.4c0 .4.4.8.8.8h4.3v23.9zm-5.7-5.6v3.9a.47.47 0 0 0 .5.5h1.5c1.4 0 2.5-1.1 2.5-2.5.1-1.3-1.1-2.4-2.5-2.4h-1.5a.47.47 0 0 0-.5.5zm1.1.6h.9c.8 0 1.4.6 1.4 1.4 0 .7-.6 1.3-1.4 1.3h-.9v-2.7z"/></svg>