<svg xmlns="http://www.w3.org/2000/svg" viewBox="0 0 48 48"><path d="M23.7 17.6l5.8 5.7V23c0-3-2.4-5.5-5.5-5.5-.1.1-.2.1-.3.1m-7.8 1.5l2.8 2.8c-.1.4-.1.8-.1 1.2 0 3 2.4 5.5 5.5 5.5.4 0 .8-.1 1.2-.1l2.8 2.8c-1.2.6-2.6 1-4 1-5 0-9.1-4.1-9.1-9.1-.1-1.5.3-2.9.9-4.1M5.8 9l4.1 4.1.8.8c-3 2.4-5.4 5.5-6.8 9.1 3.1 8 10.9 13.6 20 13.6 2.8 0 5.5-.5 8-1.5l.8.8 5.3 5.3 2.3-2.3L8.1 6.7M24 14c5 0 9.1 4.1 9.1 9.1 0 1.2-.2 2.3-.7 3.3l5.3 5.3c2.7-2.3 4.9-5.3 6.2-8.6-3.1-8-10.9-13.6-20-13.6-2.5 0-5 .5-7.3 1.3l3.9 3.9A8.75 8.75 0 0 1 24 14z"/></svg>