<svg xmlns="http://www.w3.org/2000/svg" viewBox="0 0 48 48"><path d="M24 22.2l-1.1 3.6c-.6 2.2-.5 2.9-.2 3.4.1.1.3.5.6 1.7.4 1.6.8 4 .8 4.1-.1 1.5 0 3.1.1 4.6h-15a3.12 3.12 0 0 1-3.1-3.1V8.8a3.12 3.12 0 0 1 3.1-3.1h22.9c-3.5 3.8-7 10.9-8.1 16.5zM40.1 4.9c4.2 3.7 0 12.3-3.8 18.3-2.8.9-6 2.9-6 2.9s.3-.1 1.3-.6c.7-.3 2.7-.8 3.9-1-2.1 3.1-3.8 5.3-3.8 5.3s-3.6 1.5-4.7 4.9c.6-3.6 1.7-7.4 3.2-11.4C31.5 19.7 36 10 39.4 7c-3.6 2.9-7.6 9-10.5 16.6-1.7 5-2.6 9.8-2.8 13.8-.1 2.6.1 4.9.7 6.6h-.3c-.5-1.4-1-3.9-.9-9v-.4s-.3-2.2-.8-4.1c-.2-.8-.5-1.5-.7-2-.1-.2 0-1.1.4-2.5.6 1.1 1.3 2.2 1.5 3.2 0 0-.5-2.5-1.3-4 .2-.6.4-1.3.6-2 .6 1 1.2 2 1.4 3-.3-1.3-.6-2.5-1.2-3.8 1-5.3 4.3-12.2 7.8-15.9 1.9-1.8 4.5-3.6 6.8-1.6zm0 0c4.2 3.7 0 12.3-3.8 18.3-2.8.9-6 2.9-6 2.9s.3-.1 1.3-.6c.7-.3 2.7-.8 3.9-1-2.1 3.1-3.8 5.3-3.8 5.3s-3.6 1.5-4.7 4.9c.6-3.6 1.7-7.4 3.2-11.4C31.5 19.7 36 10 39.4 7c-3.6 2.9-7.6 9-10.5 16.6-1.7 5-2.6 9.8-2.8 13.8-.1 2.6.1 4.9.7 6.6h-.3c-.5-1.4-1-3.9-.9-9v-.4s-.3-2.2-.8-4.1c-.2-.8-.5-1.5-.7-2-.1-.2 0-1.1.4-2.5.6 1.1 1.3 2.2 1.5 3.2 0 0-.5-2.5-1.3-4 .2-.6.4-1.3.6-2 .6 1 1.2 2 1.4 3-.3-1.3-.6-2.5-1.2-3.8 1-5.3 4.3-12.2 7.8-15.9 1.9-1.8 4.5-3.6 6.8-1.6z"/></svg>