<svg xmlns="http://www.w3.org/2000/svg" viewBox="0 0 48 48"><path d="M24.2 26h6.4 4.2 1.1c.3 0 .2 0 .3.2.2.6 0 1.3 0 1.9v1 .8c0 .2-.2.2-.3.2h-1.3-8.5-1.4c-.3 0-.3 0-.3-.2v-1-1.3c-.2-.4-.2-1.1-.2-1.6zm-7.7 2.6h0s.2.3.2.5v.5.5h.5.8c.2 0 0 0 .2-.2s0-.6 0-.8v-.5c0-.2 0 0 .2-.2s.5-.2.8-.3c1.6-.6 2.4-3 1.1-4.3-.2-.2-.6-.3-1-.5-.3-.2-.8-.3-1.1-.5-.5-.2-1.9-.6-1.4-1.4s1.8-.5 2.6-.3c.2 0 .3.2.6.2.3.2.3 0 .3-.2s.2-.5.2-.6c0-.2.3-.6.2-.8-.2-.2-.5-.2-.6-.2-.2 0-.5-.2-.6-.2h-.6c-.2 0-.2 0-.2-.2v-.5-.6c-.2-.2-1 0-1.1 0h-.3c-.2.2 0 .6 0 .6v.5.2c-.2.2-.5.2-.6.2-1 .3-1.4 1-1.8 1.9-.2.5-.2 1 .2 1.4.3.5.8.8 1.1 1.1.8.5 1.6.6 2.4 1.1.3.2.8.6.6 1-.2.3-.8.6-1.1.6-.5.2-1.1 0-1.8-.2-.2 0-.5-.2-.6-.3-.2 0-.5-.2-.5-.2 0 .3-.2.6-.3 1 0 .2-.3.6-.2.8 0 .2.3.2.5.2s.3.2.6.2c-.1.3.2.5.7.5zM40.3 6H28.7 11.2c-1.1 0-2.6-.2-3.7 0-1.9.3-3.3 2.1-3.5 4v1.3 16.5 7.9c0 1.8-.2 3.7 1.1 5.1 1.4 1.4 3 1.3 4.8 1.3h7.2 18.1 4.5c1.4 0 2.7-.6 3.5-1.9.5-.8.6-1.6.6-2.6V22.5 10.1c.5-2.4-1.4-4.1-3.5-4.1zm0 32.1h-8.7-15.7-5.8-1.4-.3v-.5-.8-2.7-7.5-7.7c0-1.4-.2-3 0-4.5 0-.3 0-.2.2-.2h1.3 5.5 15.7 6.4 2.1c.2 0 .8-.2 1 0 .2 0 0 .5 0 .6v2.1V24v13.6c-.3-.2-.3.2-.3.5z"/></svg>