<svg xmlns="http://www.w3.org/2000/svg" viewBox="0 0 48 48"><path d="M24 4C13 4 4 13 4 24c0 1.4.1 2.8.4 4.1 1.8-.5 3.6-.7 5.5-.7 3.1 0 6 .7 8.6 1.8 3.4-2.4 7.6-3.9 12.2-3.9 2.8 0 5.5.6 8 1.6.1.1.2.2.2.3 0 .2-.1.3-.3.3h-.4c-.5 0-1-.1-1.5-.1-7 0-13.3 2.6-17.1 7.8-.1.1-.2.3-.2.3-.1.1-.1.1-.2.1s-.1 0-.2-.1c-3.6-3.4-8.4-4.8-13.8-4.9C7.9 38.4 15.3 44 24 44c11 0 20-9 20-20S35 4 24 4zm15.7 12h-.3c-.2 0-.4-.1-.7-.1-4.1-.4-7.9.7-10.4 3.6-.1.1-.2.1-.3 0-2-2.2-4.8-3.2-8-3.5-1.1-.1-2.3-.1-3.4.1-.1 0-.2-.1-.2-.2s0-.1.1-.2h.1c2-1.1 4.3-1.6 6.8-1.3 1.8.2 3.4.7 4.8 1.5 2.1-1.2 4.6-1.8 7.2-1.6 1.4.1 2.8.5 4.1 1.1.1 0 .2.1.2.1.1 0 .1.1.1.2.1.2 0 .3-.1.3z"/></svg>