<svg xmlns="http://www.w3.org/2000/svg" viewBox="0 0 48 48"><path d="M34.8 24.1c.8 1.8.9 3.7.7 5.6h0c-.2 1.7-1.3 3.3-2.4 4.6-.8.9-1.9 2.2-3.1 2.6-.4.2.1-.7.1-.8.4-.6.8-1.1 1.3-1.6.6-.8 1.2-1.6 1.5-2.5 1.2-3.1.9-6.8-.9-9.6-1-1.5-2.3-2.8-3.7-4-.7-.6-1.3-1.1-1.9-1.8-.1-.2-1.3-1.6-.9-1.9.1-.1 2.6 2.5 2.9 2.7 1 .8 2.1 1.5 3 2.4 1.4 1.4 2.7 2.7 3.4 4.3zM44 24h0c0 11-9 20-20 20S4 35 4 24 13 4 24 4s20 9 20 20zM19 37.3c-.9-.5-2.1-1.4-3.8-3.3s-2.2-3.8-2.3-5.6.5-4 1.6-5.7c1.2-1.7 4.3-5 5.3-6.1 1.1-1.1 2.5-2.6 2.6-4.4l.2-4.1c0-.5 0-.9-.4-1.1h0c-.4-.2-.4.7-.3 1.1 0 .4-.1 1.5 0 2.8 0 1.2-.3 2-1 2.9s-2.2 2-3.2 2.7c-1.1.7-4.5 3.2-5.8 5-1.2 1.7-2 2.9-2.1 5.5-.1 2.7.9 5.5 2.7 7.6 1.9 2.1 5.1 3.4 6 3.8 1 .3 1.8.6 2 .2.3-.5-.6-.8-1.5-1.3zm3.4 2.1h0c-.2 0-.1.6-.4.9-.3.4-.7.4-.7.6.1.1.6-.1.9-.4.2-.4.3-1.1.2-1.1zm-1.5-5.5c-.9-1.3-2-4.5-2-6.5 0-1.9 1.2-5.1 2.2-6.6s2-3.2 2.4-4.7.3-7.2.3-8.6c0-1.3-.1-2.8-.5-3h0c-.4-.2-.3 2-.3 2s.2 5.2 0 6.6-.7 2.6-1.2 3.6-2.4 3.3-3.3 4.6c-1 1.3-2.3 3.5-2.2 5.9 0 2.4 1.3 5.4 2.5 6.9s3.6 4.1 4.2 3.3c.2-.3-1.3-2.2-2.1-3.5zm3.3 6.3c0-.6 0-1.2-.1-1.2s-.1.5-.1 1.2c0 .6-.1 1.2.1 1.2.2-.1.1-.6.1-1.2h0zm1.9.1c-.3-.3-.2-.9-.4-.9h0c-.2 0-.1.7.2 1.1s.8.6.9.4c.1-.1-.3-.2-.7-.6zm11.8-14.8h0c-.7-4.3-5.1-7-8.5-9.1-1.5-.9-3.8-2.1-4.1-4-.1-.8-.1-1.6-.1-2.4v-.9c0-.4-.4.1-.7-.3-.6-.9-.3.3-.3.7.1 1.1.3 2.1.3 3.2 0 2.1-.4 4.1-.9 6.1-1.2 4.7-2.2 9.5-1 14.3.2 1 .6 2 1 2.9.1.3.4 1.1.7 1.2 1.3.3 2.2.4 3.2 1.4.6.6 1.1.3 1.8 0 2.3-.9 4.2-2 5.8-3.9 2.4-2.7 3.4-5.8 2.8-9.2z"/></svg>