<svg xmlns="http://www.w3.org/2000/svg" viewBox="0 0 48 48"><path d="M42.3 6.5c.4 0 .8.2 1.2.5.3.3.5.7.5 1.2v31.7c0 .5-.2.8-.5 1.2-.3.3-.7.5-1.2.5H15.7c-.4 0-.8-.2-1.2-.5-.3-.3-.5-.7-.5-1.2V34H5.7c-.4 0-.8-.2-1.2-.5-.3-.3-.5-.7-.5-1.2V15.7c0-.4.2-.8.5-1.2.3-.3.7-.5 1.2-.5H14V8.2c0-.5.2-.8.5-1.2.3-.3.7-.5 1.2-.5M14 26.1l2.4 4.4H20l-4-6.4 3.9-6.3h-3.4l-2.2 4-.1.1-.1.1c-.3-.7-.7-1.4-1.1-2.1-.3-.7-.7-1.4-1.1-2.1H8.3l3.8 6.4L8 30.6h3.6M27.8 39v-5H16.5v5m11.3-7.5v-6.2H24v6.2m3.8-8.7v-6.3H24v6.3m3.8-8.8V9H16.5v5m25 25v-5H30.3v5m11.2-7.5v-6.2H30.3v6.2m11.2-8.7v-6.3H30.3v6.3M41.5 14V9H30.3v5h11.2z"/></svg>