<svg xmlns="http://www.w3.org/2000/svg" viewBox="0 0 48 48"><path d="M41.8 32.2V15.8h0c0-.6-.1-1.2-.4-1.8a4.04 4.04 0 0 0-1.3-1.3L25.9 4.5c-1.3-.7-2.5-.7-3.8 0L8 12.6c-1.2.7-1.7 1.7-1.7 3v16.5c0 .6.1 1.2.4 1.7A4.04 4.04 0 0 0 8 35.1l14.1 8.2c1.3.7 2.5.8 3.8 0l14.2-8.2c.5-.3 1-.7 1.3-1.3.3-.4.4-1 .4-1.6zm-23-5.2c.1.1.1.2.2.3 1.1 2.1 3.3 3.4 5.7 3.4h0c2.2 0 4.3-1.1 5.5-2.9l5.6 3.4a11.9 11.9 0 0 1-4.6 4.3c-6.3 3.6-14.3 1.4-17.8-4.9-.1-.1-.1-.2-.2-.3-2.9-5.6-1.4-12.5 3.6-16.4 5.7-4.4 13.9-3.3 18.3 2.4.1.1.2.2.2.3.2.2.3.4.4.7L30 20.6c0-.1-.1-.1-.1-.2l-.3-.3c-1.9-2.3-5.2-3-7.9-1.7-3.1 1.4-4.5 5.3-2.9 8.6z"/></svg>