<svg xmlns="http://www.w3.org/2000/svg" viewBox="0 0 48 48"><path d="M44 24c0-1.5-.6-3-1.7-4.1s-2.6-1.7-4.1-1.7a5.66 5.66 0 0 0 1.7-4.1c0-3.2-2.6-5.9-5.9-5.9-1.6 0-3.1.7-4.1 1.7 0-1.5-.6-3-1.7-4.1C27 4.6 25.6 4 24 4a5.66 5.66 0 0 0-4.1 1.7c-1.1 1.1-1.7 2.6-1.7 4.1a5.66 5.66 0 0 0-4.1-1.7c-3.2 0-5.9 2.6-5.9 5.9 0 1.6.7 3.1 1.7 4.1a5.66 5.66 0 0 0-4.1 1.7C4.6 21 4 22.4 4 24h0v14.1C4 41.5 6.5 44 9.9 44h28.3c3.3 0 5.9-2.5 5.9-5.9L44 24h0zm-31.8 7.9h0c.4.4.7.5 1.5.6 1.4.1 2.7.6 3.7 1.5.9.9 1.5 2.2 1.5 3.7 0 2.9-2.3 5.2-5.2 5.2s-5.2-2.3-5.2-5.2h3c0 1.2 1 2.1 2.1 2.1 1.2 0 2.1-1 2.1-2.1 0-.6-.2-1.1-.6-1.5h0c-.4-.4-.9-.5-1.5-.6h0C12.3 35.3 11 35 10 34c-.9-.9-1.5-2.2-1.5-3.7 0-2.9 2.3-5.2 5.2-5.2s5.2 2.3 5.2 5.2h-3c0-1.2-1-2.1-2.1-2.1-1.2 0-2.1 1-2.1 2.1-.2.6.1 1.2.5 1.6zm13.4 11h-3l-3.7-17.7h3L24 35.6l2.1-10.4h3l-3.5 17.7zm8.8 0c-2.9 0-5.2-2.3-5.2-5.2v-7.3h0c0-2.9 2.3-5.2 5.2-5.2s5.2 2.3 5.2 5.2h-3c0-1.2-1-2.1-2.1-2.1-1.2 0-2.1 1-2.1 2.1v7.3c0 1.2 1 2.1 2.1 2.1 1.2 0 2.1-1 2.1-2.1h0v-2.1h-2.1v-3h5.2v5.2h0c-.1 2.7-2.4 5.1-5.3 5.1zM6.7 24c0-.8.3-1.6.9-2.2 1.2-1.2 3.2-1.2 4.5 0h6.5L14 17.2c-1.7 0-3.2-1.4-3.2-3.2 0-1.7 1.4-3.2 3.2-3.2 1.7 0 3.2 1.4 3.2 3.2l4.6 4.6v-6.5c-1.2-1.2-1.2-3.2 0-4.5 1.2-1.2 3.2-1.2 4.5 0 1.2 1.2 1.2 3.2 0 4.5v6.5l4.6-4.6c0-1.7 1.4-3.2 3.2-3.2 1.7 0 3.2 1.4 3.2 3.2 0 1.7-1.4 3.2-3.2 3.2l-4.6 4.6H36c1.2-1.2 3.2-1.2 4.5 0 .6.6.9 1.4.9 2.2H6.7z"/></svg>