<svg xmlns="http://www.w3.org/2000/svg" viewBox="0 0 48 48"><path d="M16.7 43.8c-4.9-1.4-7.3-4.5-7.3-9.4v-4c0-2.9-1.3-4.3-3.7-4.3V22c2.4 0 3.5-1.3 3.7-4v-4.3c0-2.5.6-4.5 1.8-6.1s3-2.7 5.4-3.3l1.1 3.3c-1 .3-1.8 1.1-2.4 1.9-.5 1-.8 2.2-.8 4v4.3c0 3-1.3 5.3-3.7 6.4 2.4 1.3 3.7 3.3 3.7 6.5V35c0 3.2 1.1 5.1 3.2 5.7l-1 3.1zm6 .2l-3-1.6.8-1.3a9.17 9.17 0 0 0 1.4-4.9v-4.6h4.9v4c0 1.4-.3 3-1.1 4.6-.7 1.6-1.7 2.8-3 3.8zm-1.9-26.9c0-1 .3-1.8 1-2.2.6-.6 1.4-.8 2.4-.8s1.8.3 2.4.8c.6.6 1 1.3 1 2.2 0 1-.3 1.6-1 2.2s-1.4.8-2.4.8-1.8-.3-2.4-.8-1-1.3-1-2.2zm9.4 23.6c2.1-.8 3.2-2.7 3.2-5.9v-4.3c0-3 1.3-5.3 3.7-6.4-2.5-1.1-3.7-3.3-3.7-6.5v-4.3c0-3.2-1.1-5.1-3.2-5.9L31.3 4c2.4.6 4.3 1.8 5.4 3.3 1.3 1.6 1.9 3.5 1.9 6.1v4.3c0 2.7 1.3 4 3.7 4v4.1c-2.4 0-3.7 1.4-3.7 4.3v4.5c-.2 4.8-2.5 7.8-7.3 9.1l-1.1-3z"/></svg>