<svg xmlns="http://www.w3.org/2000/svg" viewBox="0 0 48 48"><path d="M24.8 9.2c-.2 2.6-.5 5.6-1.1 8.3v.6c1.3 3.2 3.2 6.1 5.8 8.3.6.5 1.4 1.1 2.1 1.4.3.2.5.2.8 0 2.4-.3 4.8-.5 7.2-.3 1.1.2 2.1.2 3.2.6.8.3 1.3 1 1.3 1.9 0 .5 0 1.1-.2 1.4-.3 1.3-1.1 1.8-2.4 1.9-1.8.2-3.7-.3-5.3-1-1.8-.6-3.4-1.3-5-2.1-.3-.2-.8-.3-1.1-.3-4.6.6-9.1 1.8-13.4 3.2-.2 0-.3.2-.3.3-1.1 1.8-2.4 4-3.8 5.8-1.1 1.4-2.2 3-4.2 3.8-.8.3-1.6.3-2.6 0-.3-.2-.5-.3-.8-.3-1-.3-1.1-1.1-1-2.1.3-1.1 1-1.8 1.8-2.6 1.8-1.8 3.8-3.2 5.9-4.2.2 0 .2-.2.3-.2 1.1-.3 1.8-1.1 2.2-2.1 1.1-2.2 2.2-4.5 3.5-6.6 1.1-1.9 1.8-4.2 2.7-6.1.2-.3.2-.6.2-1-.6-2.7-1.3-5.4-1.6-8.3-.2-1.3 0-2.6.3-4 .3-.8 1-1.1 1.6-1.3.5-.2 1.1-.2 1.6-.2.8 0 1.1.5 1.6 1.1.9 1.8.7 3 .7 4.1zm-7 22.7c3.4-1.3 6.9-2.1 10.4-2.7-1.1-1.2-2.1-2-3.2-3.2-1-1.1-1.8-2.4-2.6-3.5-1.6 3-3.2 6.2-4.6 9.4zm4.8-17.8h0c.3-.3.3-.5.5-.6.5-1.6.6-3.2.3-4.8-.2-.5-.3-1.1-.5-1.8-.2-.3-.3-.3-.6-.5-.2.3-.3.5-.3.6-.3 1.8-.2 3.7.2 5.4.1.5.2 1.1.4 1.7zM35.9 30v.3c1.4.5 3 1.1 4.5 1.4.6.2 1.4.2 2.2 0 .5 0 .6-.3.3-.8-.3-.3-.8-.3-1.1-.5-1.1-.3-2.2-.3-3.5-.3-1-.1-1.7-.1-2.4-.1zm-23.7 5.9C10.1 37.7 8 39.6 6.8 42c2.4-1.3 3.8-3.7 5.4-6.1z"/></svg>