<svg xmlns="http://www.w3.org/2000/svg" viewBox="0 0 48 48"><path d="M15.6 35.5c-1.1 0-2.1.9-2.1 2 0 .7.4 1.4 1.1 1.7l8 4.3c.6.4 1.3.5 2.1.5.5 0 .9-.1 1.4-.2l2.7-.8v-7.5H15.6h0zm0 0c-1.1 0-2.1.9-2.1 2 0 .7.4 1.4 1.1 1.7l8 4.3c.6.4 1.3.5 2.1.5.5 0 .9-.1 1.4-.2l2.7-.8v-7.5H15.6h0zM25.8 4.2c-.4-.1-.8-.2-1.1-.2-.7 0-1.3.1-1.9.4-.1.1-13 7-13 7-.2.1-.3.2-.5.3h-.1c0 .2-.1.2-.2.3l-.1.1-.2.2c-.2.2-.4.5-.4.5-.5.6-.7 1.4-.7 2.2v18.5c0 1.1.9 2 2.1 2 .3 0 .6-.1.8-.2l3.7-2c.7-.3 1.2-.9 1.5-1.5.1-.1.1-.3.2-.5v-.1-.1-.2-.2-9.9-3.1c0-.9.4-1.6 1-2.2 0 0-.3.3 0 0s.7-.5 1.1-.6c.4-.2 10.9-3.8 10.9-3.8V5l-3.1-.8zm0 0c-.4-.1-.8-.2-1.1-.2-.7 0-1.3.1-1.9.4-.1.1-13 7-13 7-.2.1-.3.2-.5.3h-.1c0 .2-.1.2-.2.3l-.1.1-.2.2c-.2.2-.4.5-.4.5-.5.6-.7 1.4-.7 2.2v18.5c0 1.1.9 2 2.1 2 .3 0 .6-.1.8-.2l3.7-2c.7-.3 1.2-.9 1.5-1.5.1-.1.1-.3.2-.5v-.1-.1-.2-.2-9.9-3.1c0-.9.4-1.6 1-2.2 0 0-.3.3 0 0s.7-.5 1.1-.6c.4-.2 10.9-3.8 10.9-3.8V5l-3.1-.8zm11.7 3.3L26 4.2c1.7.6 2.7 2 2.7 3.8v32.1c0 1.7-1.1 3.2-2.7 3.7.4-.1 11.6-3.2 11.6-3.2 1.7-.5 2.9-2 2.9-3.8V11.3c-.1-1.8-1.3-3.3-3-3.8h0z"/></svg>