<svg xmlns="http://www.w3.org/2000/svg" viewBox="0 0 48 48"><path d="M8.8 27.9L4 39.2l9.1-.3c-1.4-3.8-2.9-7.3-4.3-11zm23.7.1c-5.9 3.7-11.7 7.5-17.4 11.4l26.4 3.7-9-15.1zm11.3-16.4c-.8 1.3-1.6 2.4-2.4 3.5l-8 12.2c-.2.3-.3.5-.2.8 2.6 4.3 5.3 8.5 7.7 12.8.5.6.8 1.3 1.3 2.1l1.6-31.4h0zM8.6 24.7c.2.2.3.2.5.2 2.6-1.3 5-2.4 7.4-3.7.8-.5 1.3-1.3 2.1-1.9 2.2-2.1 4.5-4.2 6.9-6.2.2-.2.3-.3.3-.5l2.4-4.8c-1-.3-1.9-.6-2.7-1.1-.2 0-.3 0-.5.2-2.2 1.3-4.3 2.6-6.6 3.8-1.1.6-1.9 1.6-2.9 2.6-1.4 1.3-3 2.9-4.5 4.2-.3.5-.8.8-1.1 1.3-1.1 1.4-2.1 2.9-3 4.5.6.4 1.1.9 1.7 1.4zm9-1.9l-3.7 15.7c6.1-3.8 11.7-7.7 17.4-11.4-4.6-1.3-9.1-2.9-13.7-4.3zm9.9-8.7l5.1 12.3 9.9-14.9-15 2.6zm-9.6 7.5c4.5 1.4 9 2.9 13.4 4.5L26.4 14l-8.5 7.6zm-4.6 14.6h0c1.3-4.5 2.2-9 3.4-13.6-2.4 1.3-4.8 2.6-7.2 3.7 1.1 3.2 2.3 6.5 3.8 9.9zm27.2-25.4c-1.4-.5-2.9-.8-4.3-1.3-2.1-.5-4.2-1.1-6.3-1.6-.3-.2-.5-.2-.5.2-.6 1.4-1.4 2.9-2.2 4.5v.3l13.3-2.1h0zm-8.2-3.4L44 10.6l-2.1-5.4c-3.2.6-6.4 1.4-9.6 2.2h0zm3.4 35.7l-9.6-1.3c-4-.5-8-1.3-12-1.6-1.4-.2-2.9 0-4.3 0-1.3 0-2.4 0-3.7.2-.2 0-.3 0-.3.2l29.9 2.5c0 .1 0 0 0 0zM4.3 35.7c1.3-2.9 2.6-6.1 3.8-9 .2-.3.2-.4-.1-.7-.5-.5-1.1-1.1-1.6-1.8L4 35.9h.2s.1 0 .1-.2zM29.6 6.6c2.1-.5 4.5-1 6.6-1.4.2 0 .3-.2.3-.2v-.2L27 6c1.2.6 1.8.9 2.6.6z"/></svg>