<svg xmlns="http://www.w3.org/2000/svg" viewBox="0 0 48 48"><path d="M26.5 6.5c1.6 0 3.2.2 4.7.6s2.9 1 4.2 1.8c1.3.7 2.5 1.6 3.5 2.7 1.1 1.1 2 2.2 2.7 3.5.8 1.3 1.4 2.7 1.8 4.2s.6 3 .6 4.7-.2 3.2-.6 4.7-1 2.9-1.8 4.2-1.7 2.5-2.7 3.5c-1.1 1.1-2.2 2-3.5 2.7-1.3.8-2.7 1.4-4.2 1.8s-3 .6-4.7.6c-1.4 0-2.8-.2-4.2-.5s-2.7-.8-3.9-1.5-2.4-1.4-3.4-2.4c-1.1-.9-2-2-2.9-3.2H5.7c-.4 0-.8-.2-1.2-.5-.3-.2-.5-.6-.5-1.1V15.7c0-.4.2-.8.5-1.2.3-.3.7-.5 1.2-.5h6.5c.8-1.2 1.8-2.2 2.9-3.2 1-.9 2.2-1.7 3.4-2.4 1.2-.6 2.5-1.1 3.9-1.5 1.3-.2 2.7-.4 4.1-.4m1.3 2.6v13.7h13.7c-.2-1.8-.6-3.5-1.4-5.1s-1.7-3-3-4.2c-1.2-1.2-2.6-2.2-4.2-3s-3.3-1.3-5.1-1.4M19 21.7c0-.8-.1-1.4-.4-1.9s-.6-1-1-1.3-1-.6-1.6-.7c-.6-.2-1.3-.2-2-.2H8.7v13.1h3.1V26h2.1a6.28 6.28 0 0 0 1.9-.3c.6-.2 1.2-.5 1.6-.8.5-.3.9-.8 1.2-1.3.2-.6.4-1.2.4-1.9M26.5 39c1.3 0 2.6-.2 3.8-.5s2.3-.8 3.4-1.4 2.1-1.3 3-2.2c.9-.8 1.7-1.7 2.3-2.7.7-1 1.2-2.1 1.7-3.3.4-1.2.7-2.4.8-3.7H25.3V9.1c-1.9.2-3.8.7-5.5 1.5s-3.2 2-4.5 3.4h7c.4 0 .8.2 1.2.5.3.3.5.7.5 1.2v16.7c0 .4-.2.8-.5 1.2-.3.3-.7.5-1.2.5h-7c.7.8 1.5 1.5 2.3 2.1.9.6 1.8 1.1 2.7 1.6 1 .4 2 .8 3 1l3.2.2M13.7 20c.6 0 1.1.1 1.5.4s.6.7.6 1.4c0 .3-.1.5-.2.7s-.3.4-.5.5-.4.2-.7.2c-.2.1-.5.1-.8.1h-1.8V20h1.9z"/></svg>