<svg xmlns="http://www.w3.org/2000/svg" viewBox="0 0 48 48"><path d="M7.2 18.2h5.9c1.7 0 3 .5 3.8 1.5s1 2.3.8 4.1a6.76 6.76 0 0 1-.7 2.3c-.3.8-.8 1.4-1.4 2-.7.8-1.5 1.3-2.4 1.5a10.9 10.9 0 0 1-2.6.3H7.9L7.1 34H4l3.2-15.8h0m2.6 2.5l-1.3 6.6h.3.3c1.4 0 2.6-.1 3.5-.4s1.6-1.4 1.9-3.2c.3-1.5 0-2.4-.8-2.7-.8-.2-1.8-.3-2.9-.3h-.5-.5 0M21.2 14h3.1l-.9 4.2h2.7c1.5 0 2.6.3 3.4.9s1 1.7.7 3.4l-1.5 7.4h-3.1l1.4-7c.1-.7.1-1.3-.1-1.6s-.7-.5-1.5-.5h-2.5l-1.9 9h-3L21.2 14h0m12.2 4.2h5.9c1.7 0 3 .5 3.8 1.5s1 2.3.8 4.1a6.76 6.76 0 0 1-.7 2.3c-.3.8-.8 1.4-1.4 2-.7.8-1.5 1.3-2.4 1.5a10.9 10.9 0 0 1-2.6.3h-2.7l-.8 4.1h-3.1l3.2-15.8h0m2.6 2.5l-1.3 6.6h.3.3c1.4 0 2.6-.1 3.5-.4s1.6-1.4 1.9-3.2c.3-1.5 0-2.4-.8-2.7-.8-.2-1.8-.3-2.9-.3h-1"/></svg>