<svg xmlns="http://www.w3.org/2000/svg" viewBox="0 0 48 48"><path d="M41.1 19.4c.1-.7.1-1.6.4-2.2.2.6.3 1.4.7 1.9.6-.1 1.2-.1 1.8 0-.3.5-1.1.8-1.5 1.1.5.5.8 1 1.1 1.6-.8 0-1.5-.7-2.1-1.1-.5.6-.9 1.2-1.6 1.4.3-.6.9-1.1 1-1.7-.6-.2-1.4-.7-1.8-1.2.6.1 1.4.1 2 .2m.4 4.5c.1-.5.1-1.2.3-1.6.2.5.2 1 .5 1.4.4-.1.9-.1 1.3 0-.3.3-.8.6-1.1.8.4.3.6.7.8 1.2-.6 0-1.1-.5-1.5-.8-.4.4-.6.8-1.2 1 .2-.4.7-.8.7-1.2-.4-.2-1-.5-1.3-.9.4 0 1 0 1.5.1m-1.8 3.5c0-.4.1-.8.2-1.1.1.3.1.7.4 1 .3-.1.6 0 .9 0-.2.2-.5.4-.8.5.3.2.4.5.5.8-.4 0-.8-.3-1.1-.5-.3.3-.4.6-.8.7.1-.3.5-.5.5-.9-.3-.1-.7-.4-.9-.6.4.1.8.1 1.1.1m-29.1-.2c-.3 0-4 3.6-4.4 4-.3.3-.5.9-1 1s-.7-.1-.9-.5-.5-1.1-.1-1.4 5.6-5 5.8-5.2 0-.7-.1-1.5c-.1-1-.2-1.9-.1-2.9s.3-2.2.6-3.2c.2-.6.1-1.8.9-1.8.2 0 1.4.9 1.1 2.1-.5 1.7-1 3.6-.8 5.3 0 .3.2.6.4.5 2.3-1.7 6-3.5 7-3.8.5-.1.9-.3 1.4-.3.3 0 .6.4.9.6 1.3 1.1-1.3 5.2-1.5 6.4.2 0 .4-.3.8-.7l1.6-1.5c.7-.6 1.4-1.1 2.3-1.2 2.3-.3 1.6 3 1.1 4.1.3 0 1-.8 1.6-1.4.3-.3.6-.6.9-.8.3-.3.5-.5.8-.4.2 0 .9.5 1 1.2 0 .6-.2 1.1-.3 1.7-.1.5-.1 1.9.5 1.9.2-.2.6-.2.8-.3.5-.1.4.1.8.2.6.2.1 1.1-.3 1.4-.4.4-1 .7-1.6.7-.7 0-1.2-.4-1.5-1-.2-.3-.4-1.5-.5-1.8s0-.8-.4-.4l-3.1 2.9c-1.1 1.1-2.2-.4-2-1.6s1.2-2.6 1.4-3.8c-.5 0-1.3.8-1.6 1.2l-1.6 1.8-1.6 1.7c-.4.4-.9 1-1.6 1.1-.3-.1-.9-.6-1-1.3-.1-.6.1-1.3.3-1.8.7-1.6 2.5-5 2.9-6.7-.9.1-4.6 1.8-7.1 3.9-.7.6-.1 1.7.2 2.4.3.8 1.3 2.1 1.5 2.4.7.6.1 1.2-.6 1.1l-1-.7c-.3-.3-.6-.7-.8-1-.5-.8-1-1.7-1.1-2.6M37 17.6c-.2-.8-1.2.4-1.7 1-1.3 1.7-2.6 5.2-2.8 5.9-.6 2-.8 4.5.5 6.2.8 1 2.1 1.1 3.4.7.7-.2 1.4-.7 1.6-1.2.2-.4.3-1.3-.7-.6-.4.2-1.1.5-2.3.5-.4 0-1.1-.6-1.3-1.2-.3-1-.2-2.3-.2-2.3.3-1.7 1.1-3.6 1.8-5.1l1.4-2.6c0 0 .4-.6.3-1.3z"/></svg>