<svg xmlns="http://www.w3.org/2000/svg" viewBox="0 0 48 48"><path d="M16 24.1l-2.1-.2c-2.1 0-3.2.6-3.7 1.9v12.5H4V18.5h5.9l.3 2.6c1.1-2.1 2.6-2.9 4.3-2.9.6 0 1.3.2 1.8.3l-.3 5.6zm10.4-10.6v5h3.4v4.3h-3.4v9.1c0 .8.2 1.3.3 1.6.3.3.8.3 1.6.3.6 0 1.1 0 1.6-.2v4.5c-1 .3-2.2.3-3.4.3-2.1 0-3.7-.5-4.6-1.4-1.1-1.1-1.4-2.6-1.4-4.5v-9.9h-2.6v-4.3h2.6v-5h5.9v.2zm7 24.8V22.6h-2.9v-4.3h2.9v-1.6c0-2.2.6-4 2.1-5.3 1.3-1.3 3.2-1.9 5.6-1.9 1 0 1.9.2 2.9.5v4.5h-1.4c-1.9 0-2.9.8-2.9 2.4v1.4h3.8v4.2h-3.8v15.7l-6.3.1h0z"/></svg>