<svg xmlns="http://www.w3.org/2000/svg" viewBox="0 0 48 48"><path d="M29.6 31.8c-1 .3-3.2.7-6.4.7-3.1 0-5.7-.5-5.7-1.2 0-.4.5-.6.5-.6l-.1-.1c-1.5.3-2.9.7-2.9 1.4 0 1.1 4.3 2 8.2 2 3.3 0 6.5-.6 7.9-1.3l-1.5-.9zM19 35.2c-.7.1-2.2.5-2.2 1.2 0 1 3.3 1.8 6.4 1.8 4.3 0 6.1-1.1 6.2-1.2l-1.8-1c-.8.2-2.1.5-4.4.5-2.6 0-4.3-.4-4.3-.9 0-.1.1-.2.1-.4h0zm17.6-6.9c-.1 2.3-2.3 3.8-4.4 5l.2.1c2.3-.6 6.4-2.5 6-5.4-.2-1.4-1.5-2.5-3.2-2.5-.5 0-1 .1-1.4.2h0v.3c1.5-.3 2.9.8 2.8 2.3zM23.1 41.9c6-.1 12.7-1.2 12.7-3.2 0-.4-.2-.6-.4-.8l-.1.1c-.6 1.5-5.3 2.7-12.2 2.7-4.5 0-10.7-1-10.7-2.3 0-1.2 2.9-1.9 2.9-1.9l-.2-.1c-2 .3-5.6 1.2-5.6 2.6 0 2 8.4 3 13.6 2.9zm-.6 1.4a52.22 52.22 0 0 1-7.8-.6l-.2.1c2.4.7 5.8 1.1 9.6 1.1 7.3-.1 13.3-1.9 13.4-4.1h-.1c-.5.7-3.7 3.4-14.9 3.5zm-9.2-15.5c0-1.1 4.2-1.7 6.2-1.9l.2.1c-.8.1-3.8.7-3.8 1.4 0 .8 4.6 1.3 7.3 1.3 4.6 0 7.7-.7 8.5-.9l1.2.7c-.8.4-4.2 1.4-9.7 1.4-6.1-.1-9.9-1.3-9.9-2.1m18.2-15.5l-.1-.1c-1.8.6-7.5 2.8-7.5 7 0 2.4 2.3 3.7 2.3 5.9 0 .8-.4 1.5-.8 2l.2.1c1-.6 2.6-2 2.6-3.7 0-1.5-2-3.2-2-5.1 0-3 3.9-5.4 5.3-6.1zm-2.8-5.4c0 6.2-8.4 8.5-8.4 12.9 0 3.1 2 5 3.2 6.2h-.1c-1.4-.9-5.2-3.1-5.2-6.8 0-5.2 9.7-7.7 9.7-13.6 0-.7-.1-1.3-.2-1.6h.1c.3.4.9 1.4.9 2.9"/></svg>