<svg xmlns="http://www.w3.org/2000/svg" viewBox="0 0 48 48"><path d="M18.6 9.8v3.7h-7.8c-.6-1.1-1.9-1.7-3.2-1.7-2.1 0-3.7 1.6-3.7 3.7S5.6 19 7.7 19c1.3 0 2.5-.6 3.2-1.7h4.3c-2.2 2.1-3.8 5.2-3.8 8.7v1.7H7.7v10.8h10.8V27.7h-3.7V26c0-3 1.4-5.6 3.7-7.1v1.7h10.8v-1.7c2.2 1.6 3.7 4.3 3.7 7.1v1.7h-3.7v10.8H40V27.7h-3.3V26c0-3.5-1.4-6.7-3.8-9h4.3c.6 1.1 1.9 1.7 3.2 1.7 2.1 0 3.7-1.6 3.7-3.7s-1.6-3.7-3.7-3.7c-1.3 0-2.5.6-3.2 1.7h-7.8V9.5H18.6v.3zm3.7 3.6H26v3.7h-3.7v-3.7zm-11 18H15V35h-3.7v-3.6zm21.7 0h3.7V35H33v-3.6z"/></svg>