<svg xmlns="http://www.w3.org/2000/svg" viewBox="0 0 48 48"><path d="M4 38V9.5c0-.2.1-.3.3-.3h1.6L8 9.1c.7-.1 1.6 0 2.4-.1h2.5c2.3 0 4.2.3 5.7.9 1.4.5 2.7 1.2 3.7 2.3.9.9 1.6 2 2 3.2s.6 2.4.6 3.6c0 2.4-.6 4.3-1.7 5.9s-2.7 2.7-4.5 3.4c-1.9.7-4 .9-6.2.9h-1.4-1.2V38c0 .2-.1.4-.3.4H4.3c-.2 0-.3-.1-.3-.4h0zm6-23.4v9.3c.4 0 .7.1 1.1.1h1.5c1.1 0 2.2-.2 3.2-.5.9-.2 1.7-.8 2.3-1.5s.9-1.6.9-2.9a5.42 5.42 0 0 0-.6-2.5c-.5-.7-1.1-1.3-1.9-1.6-1-.4-2.1-.6-3.3-.6h-1.9c-.7.1-1.1.1-1.3.2h0zm32.2 7.6c-.8-.4-1.7-.7-2.7-.9s-2-.4-3.1-.4c-.6 0-1.1.1-1.7.2-.4.1-.7.3-.9.6-.1.2-.2.5-.2.7a1.08 1.08 0 0 0 .3.7c.2.3.6.6.9.7l2 .9c1.5.5 2.9 1.2 4.3 2 .9.6 1.7 1.4 2.2 2.3.4.9.7 1.9.6 2.9 0 1.3-.4 2.6-1.1 3.7-.8 1.1-1.9 2-3.1 2.5-1.4.6-3 .9-5 .9-1.3 0-2.5-.1-3.8-.4-1-.2-1.9-.5-2.8-.9a.55.55 0 0 1-.3-.5v-4.8c0-.1 0-.2.1-.2h.2c1.1.6 2.2 1.1 3.4 1.4 1.1.3 2.2.4 3.3.4s1.8-.1 2.3-.4c.4-.2.7-.7.7-1.2 0-.4-.2-.7-.7-1.1-.4-.4-1.4-.8-2.7-1.3-1.4-.5-2.7-1.2-3.9-2a6.11 6.11 0 0 1-2.1-2.4c-.4-.9-.7-1.9-.6-2.8 0-1.2.3-2.3.9-3.4.7-1.1 1.7-2 2.9-2.5 1.3-.7 2.9-1 4.9-1 1.1 0 2.3.1 3.4.2.8.1 1.6.3 2.4.6.1 0 .2.1.3.2 0 .1.1.2.1.3v4.5c0 .1-.1.2-.1.3-.1.2-.3.2-.4.2h0z"/></svg>