<svg xmlns="http://www.w3.org/2000/svg" viewBox="0 0 48 48"><path d="M4 4v40h40V4H4zm21.1 34.3c-.6 1.2-1.7 2-3 2.4-2 .5-3.9.2-5.3-.7-1-.6-1.7-1.5-2.2-2.5l3-1.9a1.44 1.44 0 0 0 .2.3c.4.7.7 1.1 1.4 1.4.6.2 2.1.4 2.6-.8.3-.6.2-2.5.2-4.5v-9.7h3.7 0v10.3c.1 2.2.2 4.1-.6 5.7zm15.5-1.1c-1.3 4.4-8.6 4.6-11.4 1.7-.6-.7-1-1.1-1.4-1.9l3-1.8c.8 1.3 1.6 1.9 2.9 2.2 1.8.2 3.7-.4 3.3-2.4-.4-1.6-3.8-2-6-3.7-2.3-1.5-2.8-5.3-1-7.5.6-.8 1.7-1.4 2.8-1.7.4 0 .8-.1 1.2-.2 2.3 0 3.7.6 4.7 1.7.3.3.5.6 1 1.3l-2.9 1.9c-.4-.8-1-1.3-1.6-1.5-1-.3-2.3 0-2.5 1.1-.1.3-.1.6.1 1.2.4.9 1.8 1.3 3 1.9 3.5 1.4 4.7 3 5 4.8.2 1.7-.1 2.7-.2 2.9z"/></svg>