<svg xmlns="http://www.w3.org/2000/svg" viewBox="0 0 48 48"><path d="M29 5.3c1.8 0 3.6.1 5.4.3l1.3.2 2 .4c.7.1 1.4.3 2.2.5s1.4.5 2.1.8c.6.3 1.1.6 1.5 1 .3.2.5.7.5 1.1v28.8c0 .5-.2.9-.6 1.2-.4.4-.9.7-1.5 1s-1.3.5-2.1.8c-.7.2-1.5.4-2.2.5s-1.4.3-1.9.4l-1.4.2c-1.8.2-3.6.3-5.3.3-1.8 0-3.6-.1-5.4-.3-.3 0-.8-.1-1.3-.2l-2-.4c-.7-.1-1.4-.3-2.2-.5s-1.4-.5-2-.8-1.1-.6-1.5-1-.6-.8-.6-1.2V34H5.7c-.4 0-.8-.2-1.2-.5-.3-.3-.5-.7-.5-1.2V15.7c0-.4.2-.8.5-1.2.3-.3.7-.5 1.2-.5H14V9.6c0-.5.2-.9.6-1.2.4-.4.9-.7 1.5-1s1.3-.5 2-.8c.7-.2 1.5-.4 2.2-.5s1.4-.3 1.9-.4c.6-.1 1.1-.1 1.4-.2 1.8-.2 3.6-.2 5.4-.2m0 2.5l-2.8.1-3.2.3a15.47 15.47 0 0 0-3.1.6c-1 .2-1.9.5-2.7.9.8.4 1.7.7 2.7.9l3.1.6 3.1.3c1 .1 2 .1 2.9.1l2.9-.1 3.1-.3a15.47 15.47 0 0 0 3.1-.6c1-.2 1.9-.6 2.7-.9-.8-.4-1.7-.7-2.7-.9L35 8.2l-3.2-.3c-1-.1-1.9-.1-2.8-.1M11.9 27.6h4.2l1 3h3.3l-4.8-13.1h-3.3l-4.7 13h3.3M41.5 38v-6c-.9.4-1.8.7-2.9 1l-3.3.6-3.3.3c-1.1.1-2.1.1-3 .1s-1.9 0-2.8-.1l-2.8-.3a1.69 1.69 0 0 1-1 .3h-5.8v4c.4.3.9.5 1.5.8l2.1.6c.8.2 1.6.3 2.4.4l2.4.3 2.3.2H29c.5 0 1 0 1.7-.1L33 40c.8 0 1.6-.1 2.4-.3.9-.1 1.7-.3 2.4-.4l2.1-.6c.7-.2 1.2-.4 1.6-.7m0-8.8V22c-.9.4-1.8.7-2.9 1l-3.3.6-3.3.3c-1.1.1-2.1.1-3 .1-.8 0-1.7 0-2.5-.1l-2.5-.2v7.5l2.5.2 2.5.1h1.8l2.2-.1 2.4-.3 2.4-.4 2.1-.6c.7-.3 1.2-.6 1.6-.9m0-10V12c-.9.4-1.8.7-2.9 1l-3.3.6-3.3.3c-1.1.1-2.1.1-3 .1s-1.9 0-3-.1l-3.3-.3c-1.1-.1-2.2-.3-3.3-.6s-2-.6-2.9-1v2h5.8c.4 0 .8.2 1.2.5.3.3.5.7.5 1.2v5.6l2.5.2 2.5.1h1.8l2.2-.1 2.4-.3 2.4-.4 2.1-.6 1.6-1M12.6 25l1.4-4 1.3 4h-2.7z"/></svg>