<svg xmlns="http://www.w3.org/2000/svg" viewBox="0 0 48 48"><path d="M28.6 30.3h8.1c.8 0 1.4.6 1.4 1.4v10.9c0 .8-.6 1.4-1.4 1.4h-8.1c-.8 0-1.4-.6-1.4-1.4v-11c0-.7.6-1.3 1.4-1.3m4 1.3c-2.3 0-4.1 1.8-4.1 4.1 0 2.2 1.8 4.1 4.1 4.1l-.6-1.5c-.2-.3-.1-.7.3-.9l.7-.4c.3-.2.7-.1.9.3l1.3 1.6c.9-.7 1.5-1.9 1.5-3.2 0-2.3-1.8-4.1-4.1-4.1m0 3.4a.68.68 0 1 1 0 1.4c-.4 0-.6-.3-.6-.7s.3-.7.6-.7m-3.4 6.1a.68.68 0 1 0 0 1.4.68.68 0 1 0 0-1.4m3.5-3.2l1.7 4.3 1.8-1-2.9-3.6-.6.3zM24 40c-3.7 0-6.9-.6-9.1-1.6-1.1-.5-1.9-1-2.4-1.4s-.5-.8-.5-1v-2.6c.4.2.8.5 1.3.7C16.2 35.3 19.9 36 24 36v-4c-3.7 0-6.9-.6-9.1-1.6-1.1-.5-1.9-1-2.4-1.4s-.5-.8-.5-1v-2.6c.4.2.8.5 1.3.7C16.2 27.3 19.9 28 24 28s7.8-.7 10.7-1.9c.5-.2.9-.5 1.3-.7V28v.2h4V28 12c0-1.5-.7-2.8-1.7-3.8s-2.2-1.7-3.6-2.3C31.8 4.7 28.1 4 24 4s-7.8.7-10.7 1.9c-1.4.6-2.7 1.3-3.6 2.3S8 10.5 8 12v16 8c0 1.5.7 2.8 1.7 3.8s2.2 1.8 3.6 2.4C16.2 43.3 19.9 44 24 44v-4zM12.5 11.1c.5-.4 1.3-1 2.4-1.4C17.1 8.7 20.4 8 24 8s6.9.7 9.1 1.6c1.1.5 1.9 1 2.4 1.4s.5.8.5 1 0 .5-.5.9-1.3 1-2.4 1.4c-2.2 1-5.5 1.7-9.1 1.7s-6.9-.7-9.1-1.6c-1.1-.5-1.9-1-2.4-1.4s-.5-.8-.5-1 0-.5.5-.9zm-.5 6.3c.4.2.8.5 1.3.7C16.2 19.3 19.9 20 24 20s7.8-.7 10.7-1.9c.5-.2.9-.5 1.3-.7V20c0 .2-.1.5-.5 1s-1.3 1-2.4 1.4c-2.2 1-5.4 1.6-9.1 1.6s-6.9-.6-9.1-1.6c-1.1-.5-1.9-1-2.4-1.4s-.5-.8-.5-1v-2.6z"/></svg>