<svg xmlns="http://www.w3.org/2000/svg" xmlns:xlink="http://www.w3.org/1999/xlink" width="48" height="1998"><style><![CDATA[.B{fill:#fff}.C{opacity:.15}.D{fill:#1565c0}]]></style><path d="M19.2 54.8H4.8c-2.7 0-4.8 2.1-4.8 4.8v28.8c0 2.6 2.2 4.8 4.8 4.8h38.4c2.6 0 4.8-2.2 4.8-4.8v-24c0-2.7-2.2-4.8-4.8-4.8H24l-4.8-4.8z" class="D"/><path fill="#478fcc" d="M32.1,0H8.6C7.2,0,5.8,1,5.8,2.3v43.1c0,1.4,1.4,2.6,2.8,2.6h31.3c1.3,0,2.3-1.2,2.3-2.6V9.6L32.1,0z"/><path d="M21.5 32.8h3.8v3.8h-3.8v-3.8M24 11.5c6.7.2 9.6 7 5.7 12.1-1 1.3-2.7 2.1-3.5 3.2-.8 1-.8 2.3-.8 3.5h-3.8c0-2.1 0-3.8.8-5.1s2.5-2 3.5-2.8c3-2.8 2.3-6.8-1.9-7.1a3.8 3.8 0 0 0-3.8 3.8h-3.7c0-4.3 3.5-7.6 7.5-7.6z" class="B"/><path d="M32.1,7.2c0,1.4,1,2.4,2.3,2.4h7.7L32.1,0V7.2z" class="C"/><path d="M38.5 143.2h-34C2 143.2 0 141 0 138.4v-28.9c0-2.7 2-4.8 4.5-4.8h13.6l4.5 4.8h15.8c2.5 0 4.5 2.1 4.5 4.8H4.5v24.1l4.9-19.2H48l-5.2 20.4c-.5 2.1-2.2 3.6-4.3 3.6z" class="D"/><use xlink:href="#B" fill="#4caf50"/><path d="M14 314.1c-1.4 0-2.5 1.1-2.5 2.5v14.9c0 1.4 1.1 2.5 2.5 2.5h20c1.4 0 2.5-1.1 2.5-2.5v-14.8c0-1.4-1.1-2.5-2.5-2.5 0-.1-20-.1-20-.1zm0 2.6h20v14.9H14v-14.9zm15.6 2.4a1.97 1.97 0 0 0-1.9 1.9c0 1.1.9 1.9 1.9 1.9 1.1 0 1.9-.9 1.9-1.9a1.97 1.97 0 0 0-1.9-1.9zM19 321.7l-2.5 2.4v5h14.9v-2l-5-3-2.5 1.3-4.9-3.7z" class="B"/><use xlink:href="#C" class="C"/><use xlink:href="#B" y="50" fill="#ef5350"/><use xlink:href="#C" y="50" class="C"/><path d="M34.2 361.9h-.6l-12.5 1.7c-1.2.2-2.1 1.2-2.1 2.6v11.5c-.7-.2-1.6-.2-2.6 0-2.7.6-5 3-5 5.3 0 2.2 2.2 3.7 5 3 2.7-.6 5-3 5-5.3v-11L34 368v7.1c-.7-.2-1.6-.2-2.6 0-2.7.6-5 3-5 5.3s2.2 3.7 5 3c2.7-.6 5-3 5-5.3v-13.7c.2-1.5-.9-2.5-2.2-2.5z" class="B"/><use xlink:href="#B" y="-49.9" fill="#42a5f5"/><path d="M11.5 263v2.5h25V263h-25zm0 5v2.5h25V268h-25zm0 5v2.5h25V273h-25zm0 5v2.5h25V278h-25zm0 5v2.5h25V283h-25z" class="B"/><use xlink:href="#C" y="-49.9" class="C"/><use xlink:href="#B" y="-99.8" fill="#478fcc"/><path d="M34 233v-15H14v15h20m0-19.8c1.4 0 2.5 1.1 2.5 2.5v17.5c0 1.4-1.1 2.5-2.5 2.5H14c-1.4 0-2.5-1.1-2.5-2.5v-17.7c0-1.4 1.1-2.5 2.5-2.5h20m-8.7 17.5V228h6.3v2.5h-6.3m-4.3-5l-5-5h3.4l4.2 4.3c.4.4.4 1.3 0 1.8l-4.1 4.1h-3.4l4.9-5.2z" class="B"/><use xlink:href="#C" y="-99.8" class="C"/><use xlink:href="#B" y="100" fill="#f44336"/><use xlink:href="#C" y="100" class="C"/><path d="M11.5 413v22.4h25V413h-25zm4.3 20.8H13v-2.7h2.8v2.7zm0-5.5H13v-2.8h2.8v2.8zm0-5.6H13v-2.8h2.8v2.8zm0-5.5H13v-2.8h2.8v2.8zm19.3 16.6h-2.8v-2.7h2.8v2.7zm0-5.5h-2.8v-2.8h2.8v2.8zm0-5.6h-2.8v-2.8h2.8v2.8zm0-5.5h-2.8v-2.8h2.8v2.8z" class="B"/><use xlink:href="#B" y="150" fill="#42a5f5"/><path d="M11.5 462.9v2.5h25v-2.5h-25zm0 5v2.5h18.8v-2.5H11.5zm0 5v2.5h25v-2.5h-25zm0 5v2.5h18.8v-2.5H11.5zm0 5v2.5h25v-2.5h-25z" class="B"/><use xlink:href="#C" y="150" class="C"/><use xlink:href="#B" y="200" fill="#d50a0a"/><use xlink:href="#C" y="200" class="C"/><path d="M24.4 514.5c-.1 1.6-.3 3.5-.7 5.2v.4c.8 2 2 3.8 3.6 5.2.4.3.9.7 1.3.9a.45.45 0 0 0 .5 0c1.5-.2 3-.3 4.5-.2.7.1 1.3.1 2 .4.5.2.8.6.8 1.2 0 .3 0 .7-.1.9-.2.8-.7 1.1-1.5 1.2-1.1.1-2.3-.2-3.3-.6l-3.1-1.3c-.2-.1-.5-.2-.7-.2-2.9.4-5.7 1.1-8.4 2-.1 0-.2.1-.2.2l-2.4 3.6c-.7.9-1.4 1.9-2.6 2.4-.5.2-1 .2-1.6 0-.2-.1-.3-.2-.5-.2-.6-.2-.7-.7-.6-1.3.2-.7.6-1.1 1.1-1.6a13.1 13.1 0 0 1 3.7-2.6c.1 0 .1-.1.2-.1.7-.2 1.1-.7 1.4-1.3l2.2-4.1c.7-1.2 1.1-2.6 1.7-3.8.1-.2.1-.4.1-.6l-1-5.2c-.1-.8 0-1.6.2-2.5.2-.5.6-.7 1-.8.3-.1.7-.1 1-.1.5 0 .7.3 1 .7.5.8.4 1.5.4 2.2zM20 528.7c2.1-.8 4.3-1.3 6.5-1.7l-2-2c-.6-.7-1.1-1.5-1.6-2.2l-2.9 5.9zm3-11.1c.2-.2.2-.3.3-.4.3-1 .4-2 .2-3-.1-.3-.2-.7-.3-1.1-.1-.2-.2-.2-.4-.3-.1.2-.2.3-.2.4-.2 1.1-.1 2.3.1 3.4.1.2.2.6.3 1zm8.3 9.9v.2l2.8.9c.4.1.9.1 1.4 0 .3 0 .4-.2.2-.5-.2-.2-.5-.2-.7-.3-.7-.2-1.4-.2-2.2-.2-.6-.1-1-.1-1.5-.1zm-14.8 3.7c-1.3 1.1-2.6 2.3-3.4 3.8 1.5-.8 2.4-2.3 3.4-3.8z" class="B"/><use xlink:href="#B" y="250" fill="#eb3c00"/><use xlink:href="#C" y="250" class="C"/><path d="M34.4 564v20.4l-7.3 2.2-13.4-4.8 13.4 1.6v-17.7l-8.7 2.1v12l-4.7 2v-15.2l13.4-5 7.3 2.4z" class="B"/><use xlink:href="#B" y="300" fill="#a33639"/><use xlink:href="#C" y="300" class="C"/><path d="M36.5 617.3c.1-1.2-1-2-2-2.3-2.6-.9-5.5-1-8.2-.6v-2.5h-1.7l-13.1 2.3v19.9l13 2.3h1.8v-3.1c2.7.4 5.6.3 8.2-.6 1-.3 2.1-1.1 2-2.3v-13.1zm-16.4 11.3l-.5-2.1c-.9 0-1.7 0-2.6-.1l-.5 2c-.6 0-1.1-.1-1.7-.1l2.5-9c.7 0 1.3-.1 2-.1l2.8 9.6-2-.2zm6.2-13.4c2.5-.3 5.2-.3 7.6.4.7.3 1.6.6 1.7 1.4-.1.7-.8 1-1.3 1.2-2.6.9-5.4 1-8 .5v-3.5zm0 9a28.11 28.11 0 0 0 5.8 0c1.2-.2 2.5-.5 3.5-1.3-.1 1.2.1 2.4-.1 3.7-.5.6-1.3.8-2 1-2.4.6-4.9.6-7.3.3l.1-3.7zm9.3 6.9c-.8.9-2.1 1-3.2 1.3-2 .3-4.1.3-6.1 0v-3.7a28.11 28.11 0 0 0 5.8 0c1.3-.2 2.5-.5 3.6-1.3l-.1 3.7zm0-9.1c-.5.6-1.3.8-2 1-2.4.6-4.8.6-7.3.3v-3.7a28.11 28.11 0 0 0 5.8 0c1.3-.2 2.6-.5 3.6-1.3l-.1 3.7zm-18.3 2.9h1.9l-1-4c-.2 1.4-.6 2.7-.9 4z" class="B"/><use xlink:href="#B" y="350" fill="#207245"/><use xlink:href="#C" y="350" class="C"/><path d="M36.5 665.7v-.7c-.1-.5-.2-.7-.7-.8-.4-.1-.9-.1-1.3-.1h-8.1v-2.3l-2.4.1-7.3 1.3-4.8.8h-.2v19.9l7.8 1.3 5.1.9h1.8v-2.6H35c.3 0 .6 0 .9-.1.4-.1.6-.3.6-.6 0-.4.1-.8.1-1.2l-.1-15.9zM20 678.5c-.1 0-.1-.1-.2-.2l-1.3-3.3-.1-.1c-.1.1-.1.3-.2.4l-1.2 2.8c0 .1-.1.1-.1.1h-1.8c.1-.1.1-.2.1-.3l1.9-3.8c0-.1.1-.3 0-.4l-1.7-3.8c0-.1-.1-.2-.1-.3.6 0 1.2-.1 1.9-.1l1.2 3.3 1.3-3.2c.1-.2.1-.2.3-.2.5 0 1.1-.1 1.7-.1-.2.5-.5 1-.7 1.4l-1.4 2.9c-.1.2-.1.4 0 .6l2.1 4.2c0 .1.1.1.1.2-.6 0-1.2 0-1.8-.1zm15.6 4.4h-9.3v-1.7h2.2v-2h-2.2v-1.1h2.2v-2h-2.2V675h2.2v-2h-2.2v-1.1h2.2v-2h-2.2v-1.1h2.2v-2h-2.2v-1.7h9.3v17.8zm-2-16.2h-4v2h4v-2zm0 6.3h-4v2h4v-2zm0 6.2h-4v2h4v-2zm0-9.4h-4v2h4v-2zm-3.9 8.3h4v-2h-4v2z" class="B"/><use xlink:href="#B" y="400" fill="#d24625"/><use xlink:href="#C" y="400" class="C"/><path d="M36.5 715.6c.1-.7-.4-1.2-1.1-1.1h-9.1v-2.6h-1.6c-4.4.7-8.8 1.5-13.2 2.3v19.9l13 2.3h1.8v-2.8h8.5c.5 0 1 0 1.4-.3.3-.5.2-1.1.3-1.7v-16zM19.8 725c-.6.3-1.4.3-2.1.3v3.3c-.6 0-1.1-.1-1.7-.1v-9.1c1.5.1 3.4-.6 4.7.5 1.3 1.5.9 4.3-.9 5.1zm15.8 7.6h-9.4v-2.3H33v-1.1h-6.8v-1.4H33v-1.1h-6.8V725c1.1.3 2.4.3 3.4-.3 1.1-.6 1.7-1.9 1.7-3.1h-3.7v-3.7l-1.4.3v-2.8h9.4v17.2zM32 721c-.1-2-1.8-3.6-3.7-3.7v3.7H32zm-14.3-.1v2.9c.6-.1 1.3 0 1.6-.6a2.12 2.12 0 0 0 0-1.9c-.3-.5-1-.4-1.6-.4z" class="B"/><use xlink:href="#B" y="450" fill="#2a5699"/><use xlink:href="#C" y="450" class="C"/><path d="M36.5 765.3a.96.96 0 0 0-1.1-1.1h-9.1v-2.3h-1.7l-13.1 2.3v19.9l13 2.3h1.8v-2.3h8.5c.5 0 1 0 1.4-.3.3-.5.2-1.1.3-1.7v-16.8zM21 778c-.5.2-1.2 0-1.7 0l-1.2-5.6-1.1 5.5c-.5 0-1.1-.1-1.6-.1l-1.5-7.5c.5 0 1 0 1.5-.1l.9 5.4 1.2-5.6c.5 0 1.1-.1 1.6-.1l1.2 5.7 1-5.9c.6 0 1.1-.1 1.7-.1l-2 8.4zm14.6 5.2h-9.4v-2.3h7.4v-1.1h-7.4v-1.4h7.4v-1.1h-7.4v-1.4h7.4v-1.1h-7.4v-1.4h7.4v-1.3h-7.4v-1.4h7.4v-1.1h-7.4v-1.5h7.4V767h-7.4v-2h9.4v18.2z" class="B"/><path d="M45.6 165v23.5c-.5 1.5-1.1 2-2.5 2H12.8c-1.6 0-2.5-.9-2.5-2.5v-35.5c0-1.6.9-2.5 2.5-2.5h15.4v12.4c0 .3 0 .5.1.8.2 1.1 1.1 1.7 2.3 1.7h14.5l.5.1zM8 157.6v33c0 1.1.3 1.9 1.3 2.3.4.2.9.2 1.3.2h27.1v2.7c-.1 1-.8 1.8-1.7 2-.2.1-.4.1-.8.1l-30.3.2c-1.2 0-2.1-.6-2.3-1.7-.2-.3-.2-.5-.2-.8V160c0-1.5.9-2.4 2.4-2.4H8zm22-7.5l15.6 13.4c-.2 0-.3.1-.4.1H32.4c-1.5 0-2.5-.9-2.5-2.4v-10.6c.1-.2.1-.4.1-.5z" class="D"/><use xlink:href="#B" y="550" fill="#43a047"/><use xlink:href="#C" y="550" class="C"/><path d="M33.7 864.4H11.5v19.4h25v-19.4h-2.8zm-19.4 2.8h5.6v2.8h-5.6v-2.8zm0 5.5h5.6v2.8h-5.6v-2.8zm0 5.6h5.6v2.8h-5.6v-2.8zm19.4 2.7H22.6v-2.8h11.1v2.8zm0-5.5H22.6v-2.8h11.1v2.8zm0-5.6H22.6v-2.8h11.1v2.8z" class="B"/><use xlink:href="#B" y="600" fill="#ff6d00"/><use xlink:href="#C" y="600" class="C"/><path d="M11.5 933h25v-17.8h-25V933zm16.1-13.4h6.3v1.8h-6.3v-1.8zm0 3.6h6.3v1.8h-6.3v-1.8zm0 3.6h3.6v1.8h-3.6v-1.8zm-8.1-8.1v5.4h5.4c0 2.9-2.4 5.4-5.4 5.4s-5.4-2.4-5.4-5.4 2.5-5.4 5.4-5.4z" class="B"/><use xlink:href="#B" y="650" fill="#2196f3"/><use xlink:href="#C" y="650" class="C"/><path d="M11.5 967.8v2.5h13.2v-2.5H11.5zm0 5v2.5h25v-2.5h-25zm0 5v2.5h18.8v-2.5H11.5zm0 5v2.5h25v-2.5h-25zm24.2-19.9h-7.5c-.4 0-.8.4-.8.8v5.8c0 .5.4.8.8.8h7.5c.4 0 .8-.4.8-.8v-5.8c0-.4-.4-.8-.8-.8m-6.7 5.8l1.5-1.9 1 1.3 1.5-1.9 1.9 2.5H29zm-17.5-5.8v2.5h13.2v-2.5H11.5z" class="B"/><use xlink:href="#B" y="700" fill="#cea532"/><use xlink:href="#C" y="700" class="C"/><path d="M20.5 1000.1H24v2.3h-3.5v-2.3zm3.5 2.3h3.5v2.3H24v-2.3zm-3.5 2.4H24v2.3h-3.5v-2.3zm3.5 2.3h3.5v2.3H24v-2.3zm-3.5 2.3H24v2.3h-3.5v-2.3zm3.5 2.2v2.3h-3.5v8.2c0 .6.5 1.2 1.2 1.2h4.7c.6 0 1.2-.5 1.2-1.2v-10.5H24zm2.3 9.3h-4.7v-2.3h4.7v2.3z" class="B"/><use xlink:href="#B" y="750" fill="#f77800"/><use xlink:href="#C" y="750" class="C"/><path d="M24.6 1080.4h-7.3l-1.4 4.2h-4.4l7.5-20.2h3.9l7.6 20.2H26l-1.4-4.2zm-6.2-3.4h5l-2.5-7.6-2.5 7.6zm13.6-11.3c0-.6.2-1.1.6-1.5s.9-.6 1.6-.6 1.2.2 1.6.6.6.9.6 1.5-.2 1.1-.6 1.5-1 .6-1.6.6-1.2-.2-1.6-.6-.6-.9-.6-1.5zm4.3 18.9h-4v-15h4v15z" class="B"/><use xlink:href="#B" y="800" fill="#170f43"/><use xlink:href="#C" y="800" opacity=".4"/><path d="M15.5 1126.5v5.6h-4v-16.4H18c1.3 0 2.3.3 3.3.7s1.8 1.1 2.3 2c.5.8.8 1.8.8 2.9 0 1.6-.6 2.9-1.8 3.8s-2.8 1.4-4.7 1.4h-2.4zm0-3h2.6c.8 0 1.3-.2 1.8-.6.4-.4.6-.9.6-1.7s-.2-1.4-.6-1.8c-.4-.5-1-.7-1.7-.7h-2.7v4.8zm17.2 5.1c0-.3-.2-.6-.5-.8s-1-.4-1.9-.6-1.7-.5-2.3-.8-1.1-.8-1.4-1.3c-.4-.4-.6-1-.6-1.5 0-1.1.5-2.1 1.4-2.7.9-.8 2.2-1.1 3.7-1.1 1.6 0 2.9.3 3.9 1.1s1.5 1.7 1.5 2.9h-3.8c0-1-.5-1.5-1.6-1.5-.4 0-.8.1-1 .3s-.4.5-.4.8.2.6.5.8c.3.3.8.4 1.6.5l1.9.5c1.8.7 2.7 1.7 2.7 3.4 0 1.1-.5 2-1.5 2.7-1 .8-2.3 1.1-3.8 1.1-1.1 0-2-.2-2.8-.6s-1.5-.9-1.9-1.5c-.5-.7-.7-1.3-.7-2.1h3.6c0 .6.2 1 .6 1.2.4.3.8.4 1.4.4.5 0 .9-.1 1.2-.3 0-.2.2-.5.2-.9z" class="B"/><use xlink:href="#B" y="850" fill="#d91b22"/><use xlink:href="#C" y="850" class="C"/><path d="M13.4 1186.6v-4.9h.1c1.9 0 3.3-.9 4.6-2.1.9-1 1.7-2.1 2.2-3.4.8-1.4 1.2-2.9 1.9-4.4.4-1.3 1-2.8 1.8-4 1-1.8 2.2-3.1 3.9-4.3.9-.6 1.7-1.1 2.7-1.3.9-.2 1.9-.4 2.8-.4h1.3v4.8h-.4c-1.2 0-2.3.3-3.3 1-.7.6-1.2 1-1.8 1.7s-.9 1.3-1.2 2.1c0 .1-.1.1-.1.1h4.2v5h-5.9c-.2 0-.2 0-.2.2-.7 1.8-1.4 3.3-2.6 4.8-2.2 2.8-5 4.4-8.4 5.1-.4.1-.9.1-1.2.2-.3-.2-.4-.2-.4-.2z" class="B"/><use xlink:href="#B" y="900" fill="#81c784"/><use xlink:href="#C" y="900" class="C"/><path d="M19 1224.1l-1.3-.1c-1.3 0-2 .4-2.3 1.2v7.8h-3.9v-12.4h3.7l.2 1.6c.7-1.3 1.6-1.8 2.7-1.8.4 0 .8.1 1.1.2l-.2 3.5zm6.5-6.6v3.1h2.1v2.7h-2.1v5.7c0 .5.1.8.2 1 .2.2.5.2 1 .2.4 0 .7 0 1-.1v2.8c-.6.2-1.4.2-2.1.2-1.3 0-2.3-.3-2.9-.9-.7-.7-.9-1.6-.9-2.8v-6.2h-1.6v-2.7h1.6v-3.1l3.7.1zm4.4 15.5v-9.8h-1.8v-2.7h1.8v-1c0-1.4.4-2.5 1.3-3.3.8-.8 2-1.2 3.5-1.2.6 0 1.2.1 1.8.3v2.8h-.9c-1.2 0-1.8.5-1.8 1.5v.9h2.4v2.6h-2.4v9.8l-3.9.1z" class="B"/><use xlink:href="#B" y="950" fill="#195772"/><use xlink:href="#C" y="950" class="C"/><path d="M35.2 1267.8l-5.3 3.1c-.9-1.3-2-2.2-3.4-2.7-1.3-.4-2.8-.4-4.1.2-2.9 1.1-4.3 3.8-4 6.5s2.2 4.9 5 5.4c2.9.6 5.4-.8 6.6-3 .9.4 1.8 1 2.7 1.4.9.6 1.9 1 2.7 1.5-3.5 6-10.2 7.4-15 5.4-5.5-2.2-8.5-7.2-8.2-12.4.4-6.4 5-10.4 9.7-11.5 6.3-1.1 11.3 2.4 13.3 6.1z" class="B"/><use xlink:href="#B" y="999.9" fill="#0277bd"/><use xlink:href="#C" y="999.9" class="C"/><path d="M12.8 1311.6l2.4 22.4 8.7 2.5 8.7-2.5 2.5-22.5-22.3.1zm17 10.3l-.4 7.9-5.4 1.8-5.4-1.8-.2-3.8h2.8l.1 1.7 2.8.9 2.9-.9.2-3.1h-6l-.1-2.8h6.2l.1-2.8H18l-.2-2.5h12.4l-.4 5.4z" class="B"/><use xlink:href="#B" y="1049.9" fill="#e34f26"/><use xlink:href="#C" y="1049.9" class="C"/><path d="M35.2 1361.5H12.8l2.4 22.5 8.8 2.6 8.8-2.6 2.4-22.5zm-5.2 7.6h-9.6l.2 2.8h9.1l-.7 8-5 1.6h-.1l-5-1.7-.2-3.2h2.6l.1 1.2 2.9.7 2.8-.7.3-3.4h-8.8l-.7-7.9h12.3l-.2 2.6z" class="B"/><use xlink:href="#B" y="1099.9" fill="#f89820"/><use xlink:href="#C" y="1099.9" class="C"/><path d="M25.5 1411.5c1.3 3.1-4.9 5.2-5.5 7.8-.6 2.5 3.8 5.2 3.8 5.2-.7-1-1.1-1.9-1.8-3.5-1.2-2.6 6.7-4.9 3.5-9.5zm4.2 4.4s-5.5.3-5.9 3.9c-.1 1.6 1.4 2.5 1.6 3.6 0 .9-.9 1.8-.9 1.8s1.8-.3 2.3-1.8c.6-1.6-1.2-2.7-1-3.9.2-1.3 3.9-3.6 3.9-3.6zm1.4 8.2c-.6 0-1.2.1-1.8.6 1.2-.2 2.1.4 2.1 1.2 0 1.9-2.6 3.6-2.6 3.6s4.2-.5 4.2-3.5c-.1-1.2-.9-1.9-1.9-1.9zm-10.1 0s-5.1-.1-5.1 1.3 6.7 1.6 11.4.7c0 0 1.2-.9 1.6-1.1-3.1.7-10.1.8-10.1.1 0-.5 2.2-1 2.2-1zm-1.2 2.8c-.8 0-1.9.6-1.9 1.2 0 1.2 5.9 2.1 10.1.3l-1.4-.9c-3 1-8.5.6-6.8-.6zm.7 2.6c-1.1 0-1.8.7-1.8 1.2 0 1.4 6.4 1.7 8.9.1l-1.6-1c-1.8.7-6.5.8-5.5-.3zm-3.5 1.4c-1.8 0-2.9.8-2.9 1.4 0 3.5 17.8 3.2 17.8-.2 0-.6-.7-.9-.9-1 1.4 3.3-14.5 3.1-14.5 1.1 0-.4 1.1-.9 2.2-.7l-.9-.4c-.3-.2-.5-.2-.8-.2zm16.9 2.3c-2.7 2.6-9.6 3.6-16.5 1.9 6.8 2.7 16.4 1.2 16.5-1.9z" class="B"/><use xlink:href="#B" y="1149.9" fill="#e79627"/><use xlink:href="#C" y="1149.9" class="C"/><path d="M35 1461.5H13c-.9 0-1.6.8-1.6 1.6v21.9c0 .9.8 1.6 1.6 1.6h21.9c.9 0 1.6-.8 1.6-1.6v-21.9c.1-.9-.7-1.6-1.5-1.6zm-9.8 19.2c0 2.5-1.5 3.6-3.5 3.6-1.9 0-3.2-1.2-3.8-2.5l1.8-1.1c.3.7.9 1.1 1.7 1.1s1.1-.3 1.1-1.5v-7.6H25l.2 8zm5.3 3.5c-2.1 0-3.3-1.1-4-2.5l1.8-1.2c.4.9 1 1.6 2.1 1.6.9 0 1.5-.4 1.5-1.1 0-.8-.4-1.1-1.6-1.6l-.6-.2c-1.7-.7-2.8-1.6-2.8-3.5 0-1.7 1.3-3 3.3-3 1.5 0 2.6.6 3.2 1.8l-1.8 1.2c-.4-.7-.9-1-1.5-1-.7 0-1.1.4-1.1 1 0 .7.4.9 1.5 1.5l.6.2c1.9.9 3 1.7 3 3.6 0 2-1.5 3.2-3.6 3.2z" class="B"/><use xlink:href="#B" y="1199.9" fill="#7cb342"/><use xlink:href="#C" y="1199.9" class="C"/><path d="M20.4 1536.5c-.9-.2-1.6-.6-2.2-1a4.67 4.67 0 0 1-1.4-1.4c-.4-.5-.6-1.1-.8-1.7-.1-.6-.2-1.3-.2-1.9v-2.5c0-.3 0-.7-.1-1s-.2-.6-.4-.8-.4-.4-.6-.5c-.3-.1-.6-.2-.9-.2v-2.9c.7 0 1.2-.2 1.6-.7.3-.5.5-1.1.5-1.8v-2.6c0-.6.1-1.3.2-1.9.2-.6.4-1.2.8-1.7s.9-1 1.4-1.4c.6-.4 1.3-.7 2.2-1l.8 2.3c-.3.1-.6.3-.8.5-.2.3-.4.5-.5.8s-.2.7-.3 1.1-.1.8-.1 1.2v2.6a4.38 4.38 0 0 1-.6 2.3c-.4.7-1 1.2-1.8 1.6.8.4 1.4 1 1.8 1.7s.6 1.5.6 2.3v2.6c0 .4 0 .8.1 1.2 0 .4.1.7.3 1.1.1.3.3.6.5.8s.5.4.8.5c-.1.1-.9 2.4-.9 2.4m6.4-2.3c.3-.1.6-.3.8-.5s.4-.5.5-.8.2-.7.3-1.1.1-.8.1-1.2v-2.6a4.38 4.38 0 0 1 .6-2.3c.4-.7 1-1.2 1.8-1.6-.8-.4-1.4-1-1.8-1.6-.4-.7-.6-1.5-.6-2.3v-2.6c0-.4 0-.8-.1-1.2 0-.4-.1-.7-.3-1.1-.1-.3-.3-.6-.5-.8s-.5-.4-.8-.5l.8-2.2c.9.2 1.6.6 2.2 1a4.67 4.67 0 0 1 1.4 1.4c.4.5.6 1.1.8 1.7s.2 1.3.2 1.9v2.2c0 .4 0 .7.1 1s.2.6.4.8.4.4.6.5c.3.1.6.2.9.2v2.9c-.7 0-1.3.2-1.6.7-.3.4-.5 1.1-.5 1.8v2.6c0 .6-.1 1.3-.2 1.9s-.4 1.2-.8 1.7-.8 1-1.4 1.4-1.3.7-2.2 1l-.7-2.3" class="B"/><use xlink:href="#B" y="1249.9" fill="#ea7130"/><use xlink:href="#C" y="1249.9" class="C"/><path d="M13.8 1566.2c-1.2 0-2.3 1-2.3 2.2v11.2c0 1.3 1 2.2 2.3 2.2h20.5c1.3 0 2.3-1 2.3-2.2v-11.2c0-1.3-1-2.2-2.3-2.2H13.8zm0 1.6h20.5a.68.68 0 0 1 .7.7v11.2c0 .3-.2.7-.7.7H13.8a.68.68 0 0 1-.7-.7v-11.3c0-.3.2-.6.7-.6zm1.6 2.3v7.8h2.3v-5.2l2.3 3.1 2.3-3.1v5.2h2.3v-7.8h-2.3l-2.3 3.2-2.3-3.2c.1 0-2.3 0-2.3 0zm13.3 0v3.9h-2.3l3.5 3.9 3.5-3.9H31v-3.9h-2.3z" class="B"/><use xlink:href="#B" y="1299.9" fill="#0096c1"/><use xlink:href="#C" y="1299.9" class="C"/><path d="M33.3 1629c0 .2.1.3.1.8-.1 1.1.3 1.2.2 2.8-.1.7-.4 1.1-.6 2-.1.3-.1.5-.3.8l1.8.3c0-.5.1-.8-.3-1.7-.4-1-.1-1.2-.1-2 0-1.3.8-1.3.3-2.6-.3-.7.1-.7-.1-2.2-.3-1.8 0-5 .6-4.9.5.1.5 1.3.6 1.9.2 1.1-.5 1.7-.7 2.2 0 .3.3.5.5.4.3-.2.6-.7.9-1.2.3-1.1.3-1.9.2-3 0-.7-.1-1-.7-1.5-1.1-1.2-1.7-2.2-2.3-3.5-.2-.3-.5-.7-.8-.9-.8-.7-1-2.2-1.7-3.1-.8-.8-1.7-1.3-2.8-1.3-.9-.1-3 .8-3.8 1.4-.8.7-.7 1.8-2.7 2.8-.8.4-2.3 1.5-2.7 3.7-.5.4-.8-.2-.8-.6.3-1 .8-1.9.8-3-.2-1.5-.8-2.8-1.9-3.3-.9-.4-1.5-.2-1.9.3-1.6 1.1-2.9-.2-3.7 1.7-.1 1.3 2 .4 2.2 1.5-.3 1.3-1 .6-.6 4.5.1 1 .9 1.6 1.5 2.4.9 1 2.5 2 4 1.6 1-.3 1.2.3 1 .8-.3 1.3.1 1.8.1 3 0 .6.3.8.3 2.6.2 1.3-.4 2.5-.9 3.3l1.3-.1c.2-.8.2-1.3.3-2.4.2-.8.7-1 .6-2.2 0-2.2.8-2.2.8-3.2 0-.8.3-1.3 1-1.3.9 0 .8.4.6 1.2-.1 1.3-.4 1.1-.6 1.8-.1.6-.1 1.4.3 1.7.3.3.7.5 1.3.9.3.3 1.3 1 1.3 1.7-.2 1.4-1.7 1.2-1.6 1.8h2.2c.3-.2.3-.6.5-.6s.4.4.7.6c.3 0 .6 0 .8.1.2-.2.3-.8.2-1-.2-1-1.1-.8-.9-1.7.4-.9.7-1 1-1.4.4-.8.8-.8 1-1.3 0-1 0-1.9.2-2.7.1-.8.3-1.3.8-1.9.5-.7.6-.8.9-.3.3 1.8 1.2 3.1 1.6 4.3zm-8.1.5c.1-.1.4-.3.6-.5.4-.3.4-.4.5-.9.2-.9.5-.5.8-1.8 0-.1.2-.8.4-.7.3 0 .3.1.4.9l.3 2.4c0 .2 0 .5-.1.7 0 1-.6 1.5-.8 2-.3.5-.5.8-1.6-.2-.7-.7-1.2-1.3-.5-1.9z" class="B"/><use xlink:href="#B" y="1349.9" fill="#4f5b93"/><use xlink:href="#C" y="1349.9" class="C"/><path d="M19.7 1678.6c-.1-.8-.4-1.4-1.3-1.7-.3-.1-.6-.3-.8-.5-.3-.2-.7-.3-1.1-.4-.3-.1-.5.1-.7.3-.2.3-.1.4.1.7a3.17 3.17 0 0 0 .5.6c.3.3.6.7.8 1 .3.3.5.7.4 1.1a3.47 3.47 0 0 1-1.2 2.3c.1 0 0 0-.2 0-.4-.1-.8-.3-1.2-.5-.3-.3-.3-.8.2-1 .1-.1.3-.1.3-.2.3-.2.3-.6.3-.8-.1-.2-.2-.3-.3-.4l-1.7-1.5c-1.4-1.2-2.2-2.6-2.3-4.4-.2-2 .3-3.8 1.4-5.6.4-.7.8-1.3 1.6-1.6.5-.3 1-.3 1.5-.5 1.4-.4 2.9-.7 4.3-.4 1.3.3 2.3.9 2.7 2.2.3.8.3 1.7.3 2.6-.2 1.8-1.4 3.3-3.1 3.7-.8.2-1.1.1-1.5-.5a9.13 9.13 0 0 1-.8-1.3c0-.1-.1-.2-.1-.3s-.1-.2-.1-.3c.1.8.3 1.5.7 2.1.3.3.5.6.9.7 1.6.2 2.9-.4 3.8-1.7 1.1-1.4 1.3-3.1 1-4.8l-.3-1c-.1-.3 0-.4.3-.4.1 0 .2-.1.3-.1 1.3-.3 2.6-.3 3.9-.3 1.5.2 2.9.6 4.2 1.4 2 1.3 3.2 3.2 3.8 5.4.1.3.1.7.1 1s-.2.3-.3.2l-.5-.5c-.2-.2-.3-.3-.4-.6-.1-.2-.3-.1-.3.1 0 .1-.1.3-.1.3-.3 1.3-.9 2.3-1.8 3.3-.1.2-.3.3-.3.5 0 .5-.1 1 0 1.5l.3 3.1c.1.6-.1.9-.7 1.2-.4.2-.8.3-1.3.3-.7.1-1.3 0-2 0 0-.8.1-1.4-.7-1.8.2-.6.3-1.1.4-1.6.1-.4 0-.8-.3-1.3-.3-.3-.7-.4-1-.3-1 .6-2 .6-3.1.2-.5-.2-.8-.1-1.1.3-.3.5-.4 1-.4 1.6 0 .7.2 1.3.3 2 .1.4 0 .5-.3.6-.8.3-1.7.3-2.6.2h-.1c-.1-.8 0-1.4-.8-1.8.6-.7.5-1.6.4-2.4zm-5.1-2.8c.1-.1.3-.3.3-.5.1-.4-.3-1-.6-1.2-.2-.1-.3-.1-.5.1-.3.4-.7.8-1 1.2-.1.1-.1.2-.2.3-.2.3-.1.4.3.5a.9.9 0 0 0 .5.1c.5-.1.9-.2 1.2-.5zm.1-4.2a.65.65 0 0 0-.6-.6.65.65 0 0 0-.6.6c0 .3.3.6.6.5.4.1.6-.2.6-.5z" class="B"/><use xlink:href="#B" y="1399.9" fill="#4584b6"/><use xlink:href="#C" y="1399.9" class="C"/><path d="M26 1723.3c1.7 0 3.2-1.2 3.2-2.9v-5.6c0-1.6-1.2-2.8-2.7-3.1 0 0-1.2-.2-2.2-.2s-1.7.1-2.6.2c-2.5.4-3 1.3-3 3.1v2.6h5.9v1.3h-9c-1.7 0-3.2.8-3.7 2.7-.6 2.2-.6 3.7 0 6 .4 1.7 1.4 3.1 3.1 3.1h2.4v-3.3c0-1.9 1.7-3.9 3.8-3.9H26zm-5-7.1a.94.94 0 0 1-1-1c.1-.6.5-1 1-1s1 .4 1 1a.94.94 0 0 1-1 1zm15.1 4.3c-.4-1.7-1.4-3.1-3.1-3.1h-2.4v3.3c0 1.9-1.7 3.9-3.8 3.9H22c-1.7 0-3.2 1.2-3.2 2.9v5.6c0 1.6 1.2 2.8 2.7 3.1 0 0 1.2.2 2.2.2s1.7-.1 2.6-.2c2.5-.4 3-1.3 3-3.1v-2.6h-5.9v-1.3h9c1.7 0 3.2-.8 3.7-2.7.5-2.3.5-3.7 0-6zm-9.1 11.3a.94.94 0 0 1 1 1c-.1.6-.5 1-1 1s-1-.4-1-1a.94.94 0 0 1 1-1z" class="B"/><use xlink:href="#B" y="1449.9" fill="#cc342d"/><use xlink:href="#C" y="1449.9" class="C"/><path d="M14.5 1776.4l-3 7.1 5.7-.2-2.7-6.9zm14.8.1c-3.7 2.3-7.3 4.7-10.9 7.1l16.5 2.3-5.6-9.4zm7.1-10.3l-1.5 2.2-5 7.6c-.1.2-.2.3-.1.5l4.8 8c.3.4.5.8.8 1.3l1-19.6zm-22 8.2c.1.1.2.1.3.1l4.6-2.3c.5-.3.8-.8 1.3-1.2l4.3-3.9c.1-.1.2-.2.2-.3l1.5-3c-.6-.2-1.2-.4-1.7-.7-.1 0-.2 0-.3.1l-4.1 2.4c-.7.4-1.2 1-1.8 1.6l-2.8 2.6c-.2.3-.5.5-.7.8-.7.9-1.3 1.8-1.9 2.8l1.1 1zm5.6-1.2l-2.3 9.8 10.9-7.1-8.6-2.7zm6.2-5.4l3.2 7.7 6.2-9.3-9.4 1.6zm-6 4.7l8.4 2.8-3.1-7.6-5.3 4.8zm-2.9 9.1l2.1-8.5-4.5 2.3 2.4 6.2zm17-15.9l-2.7-.8-3.9-1c-.2-.1-.3-.1-.3.1l-1.4 2.8v.2l8.3-1.3zm-5.1-2.1l7.3 2-1.3-3.4-6 1.4zm2.1 22.3l-13.5-1.8c-.9-.1-1.8 0-2.7 0l-2.3.1c-.1 0-.2 0-.2.1l18.7 1.6c0 .1 0 0 0 0zm-19.6-4.6l2.4-5.6c.1-.2.1-.3-.1-.5l-1-1.1-1.5 7.3.2-.1c-.1.1 0 .1 0 0zm15.8-18.2l4.1-.9c.1 0 .2-.1.2-.1v-.1l-5.9.7c.7.4 1.1.6 1.6.4z" class="B"/><use xlink:href="#B" y="1499.9" fill="#01579b"/><use xlink:href="#C" y="1499.9" class="C"/><path d="M24 1825.3h7.3c.2 0 .1 0 .2.1.1.4 0 .8 0 1.2v1.1c0 .1-.1.1-.2.1h-7c-.2 0-.2 0-.2-.1v-1.4c-.1-.3-.1-.7-.1-1zm-4.8 1.6s.1.2.1.3v.6h.8c.1 0 0 0 .1-.1s0-.4 0-.5v-.3c0-.1 0 0 .1-.1s.3-.1.5-.2c1-.4 1.5-1.9.7-2.7-.1-.1-.4-.2-.6-.3s-.5-.2-.7-.3c-.3-.1-1.2-.4-.9-.9s1.1-.3 1.6-.2c.1 0 .2.1.4.1.2.1.2 0 .2-.1s.1-.3.1-.4.2-.4.1-.5-.3-.1-.4-.1-.3-.1-.4-.1h-.4c-.1 0-.1 0-.1-.1v-.7c-.1-.1-.6 0-.7 0h-.2c-.1.1 0 .4 0 .4v.4c-.1.1-.3.1-.4.1-.6.2-.9.6-1.1 1.2-.1.3-.1.6.1.9s.5.5.7.7c.5.3 1 .4 1.5.7.2.1.5.4.4.6s-.5.4-.7.4c-.3.1-.7 0-1.1-.1a.76.76 0 0 1-.4-.2c-.1 0-.3-.1-.3-.1 0 .2-.1.4-.2.6 0 .1-.2.4-.1.5 0 .1.2.1.3.1s.2.1.4.1c.1.2.3.3.6.3zm14.8-14.1H15.9c-.7 0-1.6-.1-2.3 0-1.2.2-2.1 1.3-2.2 2.5v16c0 1.1-.1 2.3.7 3.2.9.9 1.9.8 3 .8h18.6c.9 0 1.7-.4 2.2-1.2.3-.5.4-1 .4-1.6v-17.1c.2-1.5-1-2.6-2.3-2.6zm0 20H14.1v-12c0-.9-.1-1.9 0-2.8 0-.2 0-.1.1-.1h19.3c.1 0 .5-.1.6 0 .1 0 0 .3 0 .4v14.2c-.1-.1-.1.1-.1.3z" class="B"/><use xlink:href="#B" y="1549.9" fill="#00758f"/><use xlink:href="#C" y="1549.9" class="C"/><path d="M34.5 1880.5c-1.3 0-2.4.1-3.4.5-.3.1-.7.1-.7.4.2.2.2.3.3.6.3.3.6.8.9 1.1s.8.6 1.1.8l2.1 1.1 1.1.8c.2.2.3.3.6.4l-.3-.6-.5-.5c-.5-.7-1.1-1.3-1.8-1.7-.5-.4-1.8-.9-1.9-1.5l1.2-.3c.6-.2 1.1-.1 1.7-.3l.8-.3v-.2c-.3-.3-.5-.8-.8-1-.8-.8-1.9-1.5-2.9-2.1-.5-.3-1.3-.6-1.8-.8-.2-.1-.5-.2-.7-.3-.3-.4-.5-.8-.7-1.3-.5-.9-1-2-1.4-2.9l-.8-1.9c-1.8-2.9-3.7-4.7-6.6-6.4-.6-.3-1.4-.5-2.2-.7-.4 0-.8-.1-1.3-.1-.3-.1-.5-.4-.8-.6-1-.6-3.5-1.9-4.2-.2-.4 1.1.7 2.2 1.1 2.8.3.4.7.8.8 1.3.2.3.2.6.3.9.3.8.5 1.6.9 2.3.2.3.4.8.6 1.1.2.2.4.3.4.6-.3.3-.3.8-.4 1.3-.6 1.9-.4 4.3.5 5.7.3.4.9 1.3 1.8 1 .8-.3.6-1.3.8-2.2.1-.2 0-.3.1-.5.3.5.5.9.7 1.4.5.8 1.4 1.7 2.3 2.3.4.3.8.8 1.3 1-.1-.2-.3-.3-.4-.3-.3-.3-.7-.7-.9-1-.7-1-1.3-2-1.9-3.1-.3-.5-.5-1.1-.8-1.7-.1-.2-.1-.5-.3-.6-.3.4-.6.7-.8 1.2-.3.8-.3 1.7-.5 2.6H17c-.5-.2-.8-.7-.9-1.2-.5-1.2-.6-3.2-.2-4.5.1-.3.7-1.5.4-1.9-.1-.3-.4-.5-.6-.8-.3-.3-.5-.8-.6-1.1-.4-.9-.6-2-1.1-2.9a9.13 9.13 0 0 1-.8-1.3c-.3-.4-.7-.8-.9-1.3-.1-.2-.3-.5-.1-.7.1-.2.1-.2.3-.3.3-.2.8.1 1.1.2l1.7.8c.3.2.5.5.8.6h.3c.6.2 1.2 0 1.7.2.9.3 1.8.7 2.4 1.2 2.3 1.4 4.1 3.4 5.4 5.9.2.4.3.8.5 1.2.3.8.8 1.7 1.2 2.5.3.8.7 1.6 1.2 2.3.3.3 1.3.5 1.8.8.3.2.8.3 1.2.5.6.3 1.2.8 1.7 1.2.1-.3 1 .1 1 .5zm-17.496-14.897c-.3 0-.5 0-.7.1.2.3.4.4.6.7s.3.6.4.8c.3-.2.3-.4.3-.8-.1-.1-.1-.3-.2-.3-.1-.3-.3-.4-.4-.5z" class="B"/><use xlink:href="#B" y="1599.9" fill="#ffb13b"/><use xlink:href="#C" y="1599.9" class="C"/><path d="M34.6 1920.2c-.3-.3-.5-.5-.4-.9.4-3.3-2-5.8-5.3-5.4-.5.1-.8-.1-1.1-.5-1.7-2.3-5.2-2.6-7.1-.4-.6.7-1.2 1.1-1.9.8-3.1 0-5.2 2.4-4.8 5.3.1.5 0 .7-.4 1-2.6 1.9-2.7 5.3-.6 7.3v4.4c0 1.8 1.4 3.2 3.2 3.2h4.4c2 2 4.8 2 6.8 0h4.4c1.8 0 3.2-1.4 3.2-3.2v-4.4c2.1-2 2-5.4-.4-7.2zm-17.1 8.1c.2.2.4.3.8.3.8.1 1.5.3 2 .8s.8 1.2.8 2c0 1.6-1.3 2.9-2.9 2.9s-2.9-1.3-2.9-2.9H17c0 .7.5 1.2 1.2 1.2s1.2-.5 1.2-1.2c0-.3-.1-.6-.3-.8s-.5-.3-.8-.3c-.8-.1-1.5-.3-2-.8s-.8-1.2-.8-2c0-1.6 1.3-2.9 2.9-2.9s2.9 1.3 2.9 2.9h-1.7c0-.7-.5-1.2-1.2-1.2s-1.2.5-1.2 1.2c-.1.3 0 .6.3.8zm7.3 6.1h-1.7l-2-9.7h1.7l1.2 5.7 1.2-5.7h1.7l-2.1 9.7zm4.9 0c-1.6 0-2.9-1.3-2.9-2.9v-4c0-1.6 1.3-2.9 2.9-2.9s2.9 1.3 2.9 2.9h-1.7c0-.7-.5-1.2-1.2-1.2s-1.2.5-1.2 1.2v4c0 .7.5 1.2 1.2 1.2s1.2-.5 1.2-1.2v-1.2h-1.2v-1.7h2.9v2.9c0 1.6-1.3 2.9-2.9 2.9zM14.5 1924c0-.4.2-.9.5-1.2a1.75 1.75 0 0 1 2.5 0H21l-2.5-2.5c-1 0-1.7-.8-1.7-1.7 0-1 .8-1.7 1.7-1.7 1 0 1.7.8 1.7 1.7l2.5 2.5v-3.6a1.75 1.75 0 0 1 0-2.5 1.75 1.75 0 0 1 2.5 0 1.75 1.75 0 0 1 0 2.5v3.5l2.5-2.5c0-1 .8-1.7 1.7-1.7 1 0 1.7.8 1.7 1.7 0 1-.8 1.7-1.7 1.7l-2.4 2.6h3.6a1.75 1.75 0 0 1 2.5 0c.3.3.5.8.5 1.2H14.5z" class="B"/><use xlink:href="#B" y="1649.9" fill="#1d4c60"/><use xlink:href="#C" y="1649.9" class="C"/><path d="M25.3 1965.3l-5 17.5h2.5l5-17.5h-2.5zm-8.8 2.5l-5 6.3 5 6.3H19l-5-6.4 5-6.3-2.5.1zm12.5 0l5 6.3-5 6.3h2.5l5-6.3-5-6.3H29z" class="B"/><use xlink:href="#B" y="500" fill="#0e85cd"/><use xlink:href="#C" y="500" class="C"/><path d="M24 811.6c-6.9 0-12.5 5.6-12.5 12.5 0 .9.1 1.7.3 2.6 1.1-.3 2.3-.5 3.4-.5 1.9 0 3.7.4 5.4 1.1 2.1-1.5 4.8-2.4 7.6-2.4 1.8 0 3.5.4 5 1 .1 0 .1.1.1.2s-.1.2-.2.2h-1.2c-4.4 0-8.3 1.6-10.7 4.9 0 .1-.1.2-.1.2l-.1.1h-.1c-2.3-2.1-5.3-3-8.6-3 1.7 4.9 6.3 8.3 11.8 8.3 6.9 0 12.5-5.6 12.5-12.5-.1-7.1-5.7-12.7-12.6-12.7zm9.8 7.5h-.2c-.1 0-.3 0-.4-.1-2.5-.2-4.9.5-6.5 2.3-.1.1-.1.1-.2 0-1.2-1.4-3-2-5-2.2-.7-.1-1.4 0-2.1.1-.1 0-.1-.1-.1-.1s0-.1.1-.1c1.3-.7 2.7-1 4.2-.8 1.1.1 2.1.4 3 .9 1.3-.8 2.9-1.1 4.5-1 .9.1 1.8.3 2.6.7 0 0 .1 0 .1.1l.1.1s0 .1-.1.1z" class="B"/><defs ><path id="B" d="M32.1 300.1H8.6c-1.4 0-2.8 1-2.8 2.3v43.1c0 1.4 1.4 2.6 2.8 2.6h31.3c1.3 0 2.3-1.2 2.3-2.6v-35.8l-10.1-9.6z"/><path id="C" d="M32.1 307.3c0 1.4 1 2.4 2.3 2.4h7.7l-10-9.6v7.2z"/></defs></svg>